<?xml version="1.0" encoding="UTF-8" standalone="no"?>
<!-- Created with Inkscape (http://www.inkscape.org/) -->

<svg
   width="512"
   height="512"
   viewBox="0 0 135.46667 135.46667"
   version="1.1"
   id="svg1"
   inkscape:export-filename="icon-512.png"
   inkscape:export-xdpi="96"
   inkscape:export-ydpi="96"
   sodipodi:docname="icon-512.svg"
   inkscape:version="1.4.2 (f4327f4, 2025-05-13)"
   xmlns:inkscape="http://www.inkscape.org/namespaces/inkscape"
   xmlns:sodipodi="http://sodipodi.sourceforge.net/DTD/sodipodi-0.dtd"
   xmlns:xlink="http://www.w3.org/1999/xlink"
   xmlns="http://www.w3.org/2000/svg"
   xmlns:svg="http://www.w3.org/2000/svg"
   xmlns:rdf="http://www.w3.org/1999/02/22-rdf-syntax-ns#"
   xmlns:cc="http://creativecommons.org/ns#"
   xmlns:dc="http://purl.org/dc/elements/1.1/">
  <title
     id="title1">Icone-512px</title>
  <sodipodi:namedview
     id="namedview1"
     pagecolor="#505050"
     bordercolor="#eeeeee"
     borderopacity="1"
     inkscape:showpageshadow="0"
     inkscape:pageopacity="0"
     inkscape:pagecheckerboard="0"
     inkscape:deskcolor="#505050"
     inkscape:document-units="mm"
     showgrid="true"
     inkscape:zoom="0.71891835"
     inkscape:cx="40.338378"
     inkscape:cy="283.06413"
     inkscape:window-width="1920"
     inkscape:window-height="1009"
     inkscape:window-x="-8"
     inkscape:window-y="-8"
     inkscape:window-maximized="1"
     inkscape:current-layer="g5">
    <inkscape:grid
       id="grid2"
       units="mm"
       originx="0"
       originy="0"
       spacingx="0.99999998"
       spacingy="1"
       empcolor="#0099e5"
       empopacity="0.30196078"
       color="#0099e5"
       opacity="0.14901961"
       empspacing="5"
       enabled="true"
       visible="true" />
  </sodipodi:namedview>
  <defs
     id="defs1">
    <linearGradient
       id="linearGradient2"
       inkscape:collect="always">
      <stop
         style="stop-color:#092a2b;stop-opacity:1;"
         offset="0"
         id="stop2" />
      <stop
         style="stop-color:#09446c;stop-opacity:0.8888889;"
         offset="0.57538462"
         id="stop5" />
      <stop
         style="stop-color:#042a2b;stop-opacity:1;"
         offset="1"
         id="stop3" />
    </linearGradient>
    <linearGradient
       id="linearGradient6"
       inkscape:collect="always">
      <stop
         style="stop-color:#09756c;stop-opacity:1;"
         offset="0"
         id="stop6" />
      <stop
         style="stop-color:#09756c;stop-opacity:0;"
         offset="1"
         id="stop7" />
    </linearGradient>
    <linearGradient
       inkscape:collect="always"
       xlink:href="#linearGradient6"
       id="linearGradient7" />
    <linearGradient
       inkscape:collect="always"
       xlink:href="#linearGradient2"
       id="linearGradient3"
       x1="30.904854"
       y1="102.76614"
       x2="109.49693"
       y2="26.844147"
       gradientUnits="userSpaceOnUse" />
  </defs>
  <g
     inkscape:label="512px"
     inkscape:groupmode="layer"
     id="g5"
     style="display:inline">
    <g
       inkscape:groupmode="layer"
       id="layer2"
       inkscape:label="512px 1">
      <rect
         style="opacity:1;fill:url(#linearGradient3);stroke-width:0.264583;fill-opacity:1"
         id="rect1"
         width="135.46666"
         height="135.46666"
         x="0"
         y="0" />
    </g>
    <g
       id="g4"
       inkscape:label="Tete"
       transform="matrix(-0.48694424,0,0,0.48694424,118.00824,-4.6501578)"
       style="display:inline">
      <path
         id="path3"
         style="display:inline;opacity:1;fill:#09756c;fill-opacity:1;stroke:#09756c;stroke-width:0.354731;stroke-opacity:1"
         inkscape:label="tete-arriere"
         d="m 106.55577,9.94823 c -2.13709,-0.023103 -4.32212,-0.00645 -6.55567,0.051676 -1.542714,0.040148 -4.751267,0.139293 -9.056814,0.608749 l -0.0036,-0.0047 -0.0088,0.0062 c -0.978871,0.106838 -2.01413,0.23261 -3.099553,0.381372 a 9.999999,9.999999 0 0 0 0.719336,1.357023 l -12.94753,9.455754 a 7.0000005,7.0000005 0 0 0 -5.603275,-2.80448 7.0000005,7.0000005 0 0 0 -7.00009,7.000089 7.0000005,7.0000005 0 0 0 4.279325,6.449736 l -3.488675,9.485209 a 7.0000005,7.0000005 0 0 0 -2.749703,-0.562756 7.0000005,7.0000005 0 0 0 -3.420463,0.892452 C 53.432522,34.732017 50.019394,26.51363 49.191829,24.476542 29.656734,36.876668 12.609026,59.960272 15.000118,102.99991 c 2.893157,5.93097 4.000089,10.00012 7.00009,15.00012 7,-9 -1.001178,0.9689 5.999633,-8.00003 -0.859233,5.56941 -6.999906,32.71074 -9.999906,52.99987 12.000001,2 13.00024,1.99988 13.00024,1.99988 l 18.999874,-6.99958 -15.000118,11.99979 -0.999939,11.99978 5.000211,4.00028 v 6.93446 l 8.000029,5.06532 c 0,0 -1.83e-4,15.79199 2.999817,22.6441 5,7.35595 18.999902,6.35586 26.999902,3.35586 5.886291,-2.20736 31.000269,-20.9999 38.000269,-26.9999 -7,11 -11.99998,18.99999 -15.455392,23.64404 C 101.00024,227.99985 110,237 110,237 l -18.99987,36.99981 0.999939,12.0003 23.000151,1.45521 42.99995,-14.45545 c 0,0 2.99982,-26.99978 2.99982,-28.99978 26,-32 22.00024,-31.00011 30.00024,-49.00011 -12.5762,-10 -21.18404,-26.69533 -18.09606,-42.67284 20.44362,-33.29499 30.67774,-91.606125 -3.48815,-122.256624 l -37.22771,41.87393 v 5.17e-4 a 9.0000029,9.0000029 0 0 1 0.96067,4.046781 9.0000029,9.0000029 0 0 1 -8.99997,8.999967 9.0000029,9.0000029 0 0 1 -8.99997,-8.999967 9.0000029,9.0000029 0 0 1 8.99997,-9.000484 9.0000029,9.0000029 0 0 1 3.84266,0.861446 L 164.87779,26.362215 C 159.46844,22.337651 153.12812,18.919919 145.75751,16.26154 l -24.71115,26.649019 -7.39128,-8.784477 a 7.0000005,7.0000005 0 0 0 1.34514,-4.125846 7.0000005,7.0000005 0 0 0 -0.91313,-3.45612 l 12.87984,-8.822717 a 7.0000005,7.0000005 0 0 0 4.03283,1.278475 7.0000005,7.0000005 0 0 0 6.76754,-5.210018 c -4.27019,-1.117085 -8.83698,-2.007972 -13.71441,-2.650484 a 7.0000005,7.0000005 0 0 0 -0.0527,0.860412 7.0000005,7.0000005 0 0 0 1.71411,4.588868 l -12.60026,8.631514 a 7.0000005,7.0000005 0 0 0 -5.1139,-2.22002 7.0000005,7.0000005 0 0 0 -3.04788,0.698149 l -3.75068,-7.623307 a 9.999999,9.999999 0 0 0 5.3542,-6.126758 z m -17.015499,3.711401 a 9.999999,9.999999 0 0 0 7.459493,3.340365 9.999999,9.999999 0 0 0 2.650484,-0.357601 l 3.909322,7.946285 a 7.0000005,7.0000005 0 0 0 -2.55953,5.411556 7.0000005,7.0000005 0 0 0 1.65623,4.521171 l -5.905586,7.101375 a 9.999999,9.999999 0 0 0 -6.750493,-2.622579 9.999999,9.999999 0 0 0 -5.145939,1.425236 L 75.647579,30.135111 a 7.0000005,7.0000005 0 0 0 1.352372,-4.135148 7.0000005,7.0000005 0 0 0 -0.569474,-2.766239 z m -15.016654,17.682642 8.989115,10.047449 a 9.999999,9.999999 0 0 0 -3.512964,7.610388 9.999999,9.999999 0 0 0 7.748881,9.743074 l -1.182873,8.23464 C 79.80013,63.557272 70.636905,58.449431 65.645605,53.644271 a 7.0000005,7.0000005 0 0 0 2.395203,-5.27203 7.0000005,7.0000005 0 0 0 -2.806547,-5.604826 l 3.626652,-9.860896 a 7.0000005,7.0000005 0 0 0 1.138949,0.09353 7.0000005,7.0000005 0 0 0 4.523755,-1.65778 z m 38.004913,3.995622 7.39232,8.786027 -24.920964,26.875879 c 0,0 -2.855638,-1.252463 -6.885885,-3.247864 l 1.259872,-8.771558 a 9.999999,9.999999 0 0 0 0.626318,0.01964 9.999999,9.999999 0 0 0 9.999909,-9.999906 9.999999,9.999999 0 0 0 -2.123904,-6.161898 l 5.983614,-7.194393 a 7.0000005,7.0000005 0 0 0 4.14032,1.35599 7.0000005,7.0000005 0 0 0 4.5284,-1.661914 z m 11.62048,35.653637 a 5,5 0 0 0 -5.00021,5.000212 5,5 0 0 0 5.00021,4.999695 5,5 0 0 0 4.9997,-4.999695 5,5 0 0 0 -4.9997,-5.000212 z" />
      <path
         id="path4"
         style="display:inline;opacity:1;mix-blend-mode:normal;fill:#ffb42c;fill-opacity:1;stroke:#ffb42c;stroke-width:0.354731;stroke-opacity:1"
         d="M 145.75751,16.26154 94.999886,70.999801 c 0,0 -21.904331,-9.60561 -29.999719,-17.999935 C 58.018455,45.760341 50.478763,27.644387 49.191829,24.476542 29.656734,36.876668 12.609026,59.960272 15.000118,102.99991 c 3.641075,0.94481 15.000118,1.99988 15.000118,1.99988 L 54.999744,96.689189 88.180147,91.727734 59.999955,117.2869 c 0,0 -30.673753,-10.50268 -31.691605,-8.71833 -0.874572,5.56941 -7.308415,34.14217 -10.308415,54.4313 12.000001,2 13.00024,1.99988 13.00024,1.99988 l 18.999874,-6.99958 -16.000057,23.99957 5.000211,4.00028 v 6.93446 l 8.000029,5.06532 c 0,0 -3.56e-4,8.53787 1.133781,15.42025 6.924489,5.14394 12.865851,6.19586 21.865849,3.42356 3.36028,-1.03508 23.000146,-14.84354 23.000146,-14.84354 L 93.999947,151.00009 127,113.99976 l 20.99975,25.00002 1.47846,28.00036 -18.47845,16.00006 c -12.1453,31.23076 -23.01744,61.94803 -39.99963,90.99961 l 0.999939,12.0003 23.000151,1.45521 42.99995,-14.45545 c 0,0 2.99982,-26.99978 2.99982,-28.99978 26,-32 22.00024,-31.00011 30.00024,-49.00011 -12.5762,-10 -21.18404,-26.69533 -18.09606,-42.67284 20.44362,-33.29499 30.67774,-91.606125 -3.48815,-122.256624 l -37.22771,41.87393 v 5.17e-4 a 9.0000029,9.0000029 0 0 1 0.88367,2.872176 9.0000029,9.0000029 0 0 1 0.077,1.174605 9.0000029,9.0000029 0 0 1 -0.077,1.174605 9.0000029,9.0000029 0 0 1 -0.60823,2.269629 9.0000029,9.0000029 0 0 1 -1.17461,2.034501 9.0000029,9.0000029 0 0 1 -2.64015,2.315621 9.0000029,9.0000029 0 0 1 -1.88825,0.803052 9.0000029,9.0000029 0 0 1 -2.61173,0.402559 9.0000029,9.0000029 0 0 1 -1.17512,-0.077 9.0000029,9.0000029 0 0 1 -1.15445,-0.229444 9.0000029,9.0000029 0 0 1 -2.17041,-0.89917 9.0000029,9.0000029 0 0 1 -3.29438,-3.294372 9.0000029,9.0000029 0 0 1 -0.89916,-2.17041 9.0000029,9.0000029 0 0 1 -0.30645,-2.329574 9.0000029,9.0000029 0 0 1 1.85984,-5.479252 9.0000029,9.0000029 0 0 1 1.66088,-1.661397 9.0000029,9.0000029 0 0 1 0.97927,-0.654224 9.0000029,9.0000029 0 0 1 1.05575,-0.520382 9.0000029,9.0000029 0 0 1 2.07791,-0.569991 9.0000029,9.0000029 0 0 1 1.36632,-0.115238 9.0000029,9.0000029 0 0 1 1.17461,0.077 9.0000029,9.0000029 0 0 1 2.26963,0.608231 9.0000029,9.0000029 0 0 1 0.39842,0.176217 l 36.88612,-41.49049 C 159.46844,22.337651 153.12812,18.919919 145.75751,16.26154 Z m -21.6085,54.729992 a 5,5 0 0 0 -1.45107,0.223759 5,5 0 0 0 -1.04903,0.445968 5,5 0 0 0 -0.54364,0.363285 5,5 0 0 0 -1.57613,2.053622 5,5 0 0 0 -0.38034,1.913578 5,5 0 0 0 0.17053,1.293978 5,5 0 0 0 1.29398,2.241207 5,5 0 0 0 0.49196,0.431498 5,5 0 0 0 1.13016,0.652673 5,5 0 0 0 1.91358,0.380339 5,5 0 0 0 0.65267,-0.04289 5,5 0 0 0 0.64131,-0.12764 5,5 0 0 0 1.20561,-0.499195 5,5 0 0 0 1.0356,-0.794783 5,5 0 0 0 0.79426,-1.035079 5,5 0 0 0 5.2e-4,-5.17e-4 5,5 0 0 0 0.49919,-1.205611 5,5 0 0 0 0.17054,-1.293978 5,5 0 0 0 -0.17054,-1.293978 5,5 0 0 0 -0.49919,-1.206128 5,5 0 0 0 -0.79478,-1.035079 5,5 0 0 0 -0.49145,-0.431498 5,5 0 0 0 -0.54363,-0.363285 5,5 0 0 0 -5.2e-4,0 5,5 0 0 0 -0.58601,-0.289388 5,5 0 0 0 -5.2e-4,0 5,5 0 0 0 -1.91306,-0.380856 z"
         inkscape:label="tete-avant" />
    </g>
  </g>
  <metadata
     id="metadata1">
    <rdf:RDF>
      <cc:Work
         rdf:about="">
        <dc:title>Icone-512px</dc:title>
        <dc:date>Modifié le : 18/09/2025</dc:date>
        <dc:creator>
          <cc:Agent>
            <dc:title>Béatrice COUDERC</dc:title>
          </cc:Agent>
        </dc:creator>
        <dc:rights>
          <cc:Agent>
            <dc:title>(c) 2025 CelticWebCraft - Tous droits réservés</dc:title>
          </cc:Agent>
        </dc:rights>
        <dc:publisher>
          <cc:Agent>
            <dc:title>CelticWebCraft</dc:title>
          </cc:Agent>
        </dc:publisher>
        <dc:identifier>https://bcouderc.github.io/celticwebcraft/</dc:identifier>
        <dc:source>Création originale par CelticWebCraft (Inkscape)</dc:source>
        <dc:relation>Lié aux projets GitHub : https://github.com/bcouderc/</dc:relation>
        <dc:language>Francais</dc:language>
        <dc:subject>
          <rdf:Bag>
            <rdf:li>Développement</rdf:li>
            <rdf:li>web</rdf:li>
            <rdf:li>support</rdf:li>
            <rdf:li>dépannage</rdf:li>
            <rdf:li>informatique</rdf:li>
          </rdf:Bag>
        </dc:subject>
        <dc:coverage>2025 - Présent - Tout support (web, print)</dc:coverage>
        <dc:description>Portfolio et vitrine de CelticWebCraft, développeur web freelance à Guingamp (Côtes-d’Armor), spécialisé dans la création de sites vitrines modernes, responsive et optimisés.</dc:description>
      </cc:Work>
    </rdf:RDF>
  </metadata>
</svg>
