<?xml version="1.0" encoding="UTF-8" standalone="no"?>
<!-- Created with Inkscape (http://www.inkscape.org/) -->

<svg
   width="1680.3732mm"
   height="249.84915mm"
   viewBox="0 0 1680.3732 249.84915"
   version="1.1"
   id="svg1"
   inkscape:version="1.4.2 (f4327f4, 2025-05-13)"
   sodipodi:docname="logoCwcAu.svg"
   inkscape:export-filename="cwcLogoAU.png"
   inkscape:export-xdpi="96"
   inkscape:export-ydpi="96"
   xmlns:inkscape="http://www.inkscape.org/namespaces/inkscape"
   xmlns:sodipodi="http://sodipodi.sourceforge.net/DTD/sodipodi-0.dtd"
   xmlns="http://www.w3.org/2000/svg"
   xmlns:svg="http://www.w3.org/2000/svg"
   xmlns:rdf="http://www.w3.org/1999/02/22-rdf-syntax-ns#"
   xmlns:cc="http://creativecommons.org/ns#"
   xmlns:dc="http://purl.org/dc/elements/1.1/">
  <title
     id="title55">Logo CelticWebCraft 2025</title>
  <sodipodi:namedview
     id="namedview1"
     pagecolor="#505050"
     bordercolor="#eeeeee"
     borderopacity="1"
     inkscape:showpageshadow="0"
     inkscape:pageopacity="0"
     inkscape:pagecheckerboard="0"
     inkscape:deskcolor="#505050"
     inkscape:document-units="mm"
     showgrid="true"
     inkscape:zoom="0.13"
     inkscape:cx="2938.4615"
     inkscape:cy="665.38462"
     inkscape:window-width="1920"
     inkscape:window-height="1009"
     inkscape:window-x="1912"
     inkscape:window-y="-8"
     inkscape:window-maximized="1"
     inkscape:current-layer="g91"
     inkscape:export-bgcolor="#13313300"
     inkscape:lockguides="false">
    <inkscape:grid
       id="grid1"
       units="mm"
       originx="236.74617"
       originy="62.591651"
       spacingx="0.99999998"
       spacingy="1"
       empcolor="#0099e5"
       empopacity="0.30196078"
       color="#0099e5"
       opacity="0.14901961"
       empspacing="5"
       enabled="true"
       visible="true" />
  </sodipodi:namedview>
  <defs
     id="defs1" />
  <metadata
     id="metadata55">
    <rdf:RDF>
      <cc:Work
         rdf:about="">
        <dc:title>Logo CelticWebCraft 2025</dc:title>
        <dc:date>06/07/2025</dc:date>
        <dc:creator>
          <cc:Agent>
            <dc:title>Béatrice COUDERC</dc:title>
          </cc:Agent>
        </dc:creator>
        <dc:language>France</dc:language>
        <dc:subject>
          <rdf:Bag>
            <rdf:li>celtic</rdf:li>
            <rdf:li>web</rdf:li>
            <rdf:li>celticwebcraft</rdf:li>
            <rdf:li>cwc</rdf:li>
          </rdf:Bag>
        </dc:subject>
        <dc:rights>
          <cc:Agent>
            <dc:title>@CelticWebCraft, 2025</dc:title>
          </cc:Agent>
        </dc:rights>
        <dc:publisher>
          <cc:Agent>
            <dc:title>CelticWebCraft</dc:title>
          </cc:Agent>
        </dc:publisher>
        <dc:identifier>logo_celticwebcraft_2025_png</dc:identifier>
        <dc:coverage>Utilisation tous supports (web, print)</dc:coverage>
      </cc:Work>
    </rdf:RDF>
  </metadata>
  <g
     id="g93"
     inkscape:label="cwc_complet"
     transform="matrix(1.7200728,0,0,1.7200728,-5.5425327e-7,0.00430502)"
     style="display:inline">
    <g
       id="g90"
       transform="matrix(1.0650383,0.99316429,-0.99316429,1.0650383,81.422526,-112.65043)"
       inkscape:label="logo">
      <g
         inkscape:groupmode="layer"
         id="g80"
         inkscape:label="Contour"
         style="display:inline">
        <g
           id="g79">
          <path
             id="path76"
             style="display:inline;opacity:1;fill:#ffb42c;fill-opacity:1;stroke:none;stroke-width:0.291932;stroke-opacity:1"
             d="m 61.714062,55.827083 c -11.434308,10e-7 -20.703645,9.269338 -20.703645,20.703646 0,11.434308 9.269337,20.703645 20.703645,20.703646 0.872319,7.2e-5 1.743567,-0.164848 2.609144,-0.164848 v -3.487125 c -0.850217,0 -1.735563,-0.0078 -2.609144,-0.0078 -9.413141,1.05e-4 -17.044026,-7.63078 -17.04392,-17.043921 -1.06e-4,-9.413141 7.630779,-17.044026 17.04392,-17.043921 9.413142,-1.06e-4 17.044027,7.630779 17.043921,17.043921 -3.1e-5,0.880389 -0.0015,1.731833 -0.0015,2.629297 h 3.733623 c 0,-0.905526 -0.07228,-1.750199 -0.07235,-2.629297 0,-11.434308 -9.269338,-20.703646 -20.703646,-20.703646 z"
             sodipodi:nodetypes="ssccccccscccss" />
          <path
             id="path77"
             style="opacity:1;fill:#ffb42c;fill-opacity:1;stroke:none;stroke-width:0.291932;stroke-opacity:1"
             d="m 102.98906,55.827083 c -11.434307,2e-6 -20.703643,9.269339 -20.703643,20.703646 -6.8e-5,0.879098 0.167431,1.744818 0.167431,2.629297 h 3.493844 c 0,-0.849257 -0.0015,-1.748908 -0.0015,-2.629297 -1.06e-4,-9.41314 7.630778,-17.044025 17.043918,-17.043921 9.41314,-1.05e-4 17.05126,7.63078 17.05115,17.043921 1.1e-4,9.413141 -7.63078,17.044026 -17.04392,17.043921 -0.77022,-1.03e-4 -1.53127,0.01499 -2.3027,0.01499 l -0.0103,3.50573 c 0.76873,0 1.54368,0.138936 2.31304,0.139009 11.43431,2e-6 20.69642,-9.269336 20.69642,-20.703646 0,-11.43431 -9.26934,-20.703648 -20.70365,-20.703646 z"
             sodipodi:nodetypes="sccccccccccsss" />
          <path
             id="path78"
             style="opacity:1;fill:#ffb42c;fill-opacity:1;stroke:none;stroke-width:0.291932;stroke-opacity:1"
             d="m 61.714062,97.102083 c -11.434308,1e-6 -20.703646,9.269337 -20.703645,20.703647 3e-6,11.43431 9.26934,20.70364 20.703645,20.70364 11.434306,0 20.703643,-9.26933 20.703646,-20.70364 1.2e-5,-0.75132 0.01784,-1.51183 0.01784,-2.23142 l -3.684286,-0.0175 c 0,0.71679 0.0066,1.49683 0.0067,2.24896 1.05e-4,9.41314 -7.63078,17.04403 -17.043921,17.04392 -9.413141,1.1e-4 -17.044025,-7.63078 -17.04392,-17.04392 -1.05e-4,-9.41314 7.630779,-17.04403 17.04392,-17.04392 0.873581,4e-5 1.674183,8.2e-4 2.609144,8.2e-4 v -3.717867 c -0.869929,0 -1.736825,0.05725 -2.609144,0.05732 z"
             sodipodi:nodetypes="cssscccccccccc" />
          <path
             id="path79"
             style="opacity:1;fill:#ffb42c;fill-opacity:1;stroke:none;stroke-width:0.291932;stroke-opacity:1"
             d="m 102.98906,97.102083 c -0.76936,7.3e-5 -1.51791,-0.03669 -2.30787,-0.03669 l 0.005,3.694867 c 0.75818,0 1.53248,0.002 2.3027,0.002 9.41314,-1.1e-4 17.04403,7.63078 17.04392,17.04392 1.1e-4,9.41314 -7.63078,17.04403 -17.04392,17.04392 -9.41314,1e-4 -17.044023,-7.63078 -17.043918,-17.04392 1.04e-4,-0.75213 0.0061,-2.24896 0.0061,-2.24896 l -3.520618,0.0187 c 0,0.75292 -0.145223,1.47895 -0.145211,2.23027 3e-6,11.4343 9.269339,20.70364 20.703647,20.70364 11.43431,0 20.70365,-9.26933 20.70365,-20.70364 0,-11.43431 -9.26934,-20.703649 -20.70365,-20.703647 z"
             sodipodi:nodetypes="ccccccccccsscc" />
        </g>
      </g>
      <g
         inkscape:label="Initial"
         inkscape:groupmode="layer"
         id="g89"
         style="display:inline">
        <g
           id="g82"
           inkscape:label="HD">
          <rect
             style="fill:#ffb42c;fill-opacity:1;stroke:none;stroke-width:0.528325;stroke-opacity:1"
             id="rect80"
             width="9.2861099"
             height="36.123161"
             x="88.374657"
             y="76.319336" />
          <g
             id="g81"
             inkscape:label="CHD">
            <path
               id="path80"
               style="fill:#ffb42c;fill-opacity:1;stroke:none;stroke-width:0.0670254;stroke-opacity:1"
               d="M 103.26533,61.665695 A 14.894551,14.894551 0 0 0 88.370775,76.560247 14.894551,14.894551 0 0 0 97.661848,90.360669 V 76.538365 h 0.0015 a 5.6019332,5.6019332 0 0 1 5.601942,-5.580052 5.6019332,5.6019332 0 0 1 5.60193,5.601934 5.6019332,5.6019332 0 0 1 -5.60193,5.601932 5.6019332,5.6019332 0 0 1 -0.26015,-0.0061 h -2.31826 v 9.073793 a 14.894551,14.894551 0 0 0 2.57841,0.224876 14.894551,14.894551 0 0 0 14.89455,-14.89455 14.894551,14.894551 0 0 0 -14.89455,-14.894553 z" />
            <rect
               style="fill:#ffb42c;fill-opacity:1;stroke:none;stroke-width:0.264098;stroke-opacity:1"
               id="rect81"
               width="2.68063"
               height="0.92667359"
               x="100.68586"
               y="90.527534" />
          </g>
        </g>
        <g
           id="g84"
           style="fill:#ffb42c;fill-opacity:1"
           transform="rotate(90,82.471516,97.326036)"
           inkscape:label="BD">
          <rect
             style="fill:#ffb42c;fill-opacity:1;stroke:none;stroke-width:0.528325;stroke-opacity:1"
             id="rect82"
             width="9.2861099"
             height="36.123161"
             x="88.374657"
             y="76.319336" />
          <g
             id="g83"
             style="fill:#ffb42c;fill-opacity:1"
             inkscape:label="CBD">
            <path
               id="path82"
               style="fill:#ffb42c;fill-opacity:1;stroke:none;stroke-width:0.0670254;stroke-opacity:1"
               d="M 103.26533,61.665695 A 14.894551,14.894551 0 0 0 88.370775,76.560247 14.894551,14.894551 0 0 0 97.661848,90.360669 V 76.538365 h 0.0015 a 5.6019332,5.6019332 0 0 1 5.601942,-5.580052 5.6019332,5.6019332 0 0 1 5.60193,5.601934 5.6019332,5.6019332 0 0 1 -5.60193,5.601932 5.6019332,5.6019332 0 0 1 -0.26015,-0.0061 h -2.31826 v 9.073793 a 14.894551,14.894551 0 0 0 2.57841,0.224876 14.894551,14.894551 0 0 0 14.89455,-14.89455 14.894551,14.894551 0 0 0 -14.89455,-14.894553 z" />
            <rect
               style="fill:#ffb42c;fill-opacity:1;stroke:none;stroke-width:0.264098;stroke-opacity:1"
               id="rect83"
               width="2.68063"
               height="0.92667359"
               x="100.68586"
               y="90.527534" />
          </g>
        </g>
        <g
           id="g86"
           transform="rotate(180,82.507498,97.340003)"
           inkscape:label="BG">
          <rect
             style="fill:#ffb42c;fill-opacity:1;stroke:none;stroke-width:0.528325;stroke-opacity:1"
             id="rect84"
             width="9.2861099"
             height="36.123161"
             x="88.444809"
             y="76.319336" />
          <g
             id="g85"
             inkscape:label="CBG">
            <path
               id="path84"
               style="fill:#ffb42c;fill-opacity:1;stroke:none;stroke-width:0.0670254;stroke-opacity:1"
               d="M 103.26533,61.665695 A 14.894551,14.894551 0 0 0 88.370775,76.560247 14.894551,14.894551 0 0 0 97.661848,90.360669 V 76.538365 h 0.0015 a 5.6019332,5.6019332 0 0 1 5.601942,-5.580052 5.6019332,5.6019332 0 0 1 5.60193,5.601934 5.6019332,5.6019332 0 0 1 -5.60193,5.601932 5.6019332,5.6019332 0 0 1 -0.26015,-0.0061 h -2.31826 v 9.073793 a 14.894551,14.894551 0 0 0 2.57841,0.224876 14.894551,14.894551 0 0 0 14.89455,-14.89455 14.894551,14.894551 0 0 0 -14.89455,-14.894553 z" />
            <rect
               style="fill:#ffb42c;fill-opacity:1;stroke:none;stroke-width:0.264098;stroke-opacity:1"
               id="rect85"
               width="2.68063"
               height="0.92667359"
               x="100.68586"
               y="90.527534" />
          </g>
        </g>
        <g
           id="g88"
           inkscape:label="HG">
          <rect
             style="fill:#ffb42c;fill-opacity:1;stroke:none;stroke-width:0.528325;stroke-opacity:1"
             id="rect86"
             width="9.2861099"
             height="36.123161"
             x="-91.450829"
             y="61.536781"
             transform="rotate(-90)" />
          <g
             id="g87"
             style="fill:#ffb42c;fill-opacity:1"
             transform="rotate(-90,82.521465,97.30402)"
             inkscape:label="CHG">
            <path
               id="path86"
               style="fill:#ffb42c;fill-opacity:1;stroke:none;stroke-width:0.0670254;stroke-opacity:1"
               d="M 103.26533,61.665695 A 14.894551,14.894551 0 0 0 88.370775,76.560247 14.894551,14.894551 0 0 0 97.661848,90.360669 V 76.538365 h 0.0015 a 5.6019332,5.6019332 0 0 1 5.601942,-5.580052 5.6019332,5.6019332 0 0 1 5.60193,5.601934 5.6019332,5.6019332 0 0 1 -5.60193,5.601932 5.6019332,5.6019332 0 0 1 -0.26015,-0.0061 h -2.31826 v 9.073793 a 14.894551,14.894551 0 0 0 2.57841,0.224876 14.894551,14.894551 0 0 0 14.89455,-14.89455 14.894551,14.894551 0 0 0 -14.89455,-14.894553 z" />
            <rect
               style="display:inline;fill:#ffb42c;fill-opacity:1;stroke:none;stroke-width:0.264098;stroke-opacity:1"
               id="rect87"
               width="2.68063"
               height="0.92667359"
               x="100.68586"
               y="90.527534" />
          </g>
        </g>
      </g>
    </g>
    <g
       inkscape:groupmode="layer"
       id="g91"
       inkscape:label="typo"
       style="display:inline;fill:#ebb42c;fill-opacity:1">
      <text
         xml:space="preserve"
         style="font-style:normal;font-variant:normal;font-weight:normal;font-stretch:normal;font-size:45.8611px;font-family:'Space Mono';-inkscape-font-specification:'Space Mono';text-align:start;letter-spacing:1.32292px;word-spacing:1.98173px;writing-mode:lr-tb;direction:ltr;text-anchor:start;opacity:1;fill:#ffb42c;fill-opacity:1;stroke:none;stroke-width:0.269081;stroke-opacity:1"
         x="151.81119"
         y="144.58191"
         id="text90"
         inkscape:label="bvvw"><tspan
           sodipodi:role="line"
           id="tspan90"
           style="font-style:normal;font-variant:normal;font-weight:normal;font-stretch:normal;font-size:45.8611px;font-family:'Space Mono';-inkscape-font-specification:'Space Mono';letter-spacing:1.32292px;word-spacing:1.98173px;fill:#ffb42c;fill-opacity:1;stroke-width:0.269081"
           x="151.81119"
           y="144.58191">Boostez votre Visibilité Web</tspan></text>
      <text
         xml:space="preserve"
         style="font-style:normal;font-variant:normal;font-weight:normal;font-stretch:normal;font-size:88.1944px;font-family:'Zen Dots';-inkscape-font-specification:'Zen Dots';text-align:start;writing-mode:lr-tb;direction:ltr;text-anchor:start;opacity:1;fill:#ffb42c;fill-opacity:1;stroke:none;stroke-width:0.269081;stroke-opacity:1"
         x="151.73465"
         y="63.585548"
         id="text91"
         inkscape:label="cwc"><tspan
           sodipodi:role="line"
           id="tspan91"
           style="font-size:88.1944px;fill:#ffb42c;fill-opacity:1;stroke-width:0.269081"
           x="151.73465"
           y="63.585548">CelticWebCraft</tspan></text>
    </g>
    <g
       inkscape:groupmode="layer"
       id="g92"
       inkscape:label="trait"
       style="display:inline">
      <rect
         style="opacity:1;fill:#09756c;fill-opacity:1;stroke:none;stroke-width:0.318604;stroke-opacity:1"
         id="rect91"
         width="293.76761"
         height="19.457222"
         x="154.16106"
         y="78.203064" />
      <rect
         style="opacity:1;fill:#ffb42c;fill-opacity:1;stroke:none;stroke-width:0.427961;stroke-opacity:1"
         id="rect92"
         width="530.04053"
         height="19.457222"
         x="446.76773"
         y="78.203064" />
    </g>
  </g>
</svg>
