<?xml version="1.0" encoding="UTF-8" standalone="no"?>
<!-- Created with Inkscape (http://www.inkscape.org/) -->

<svg
   width="1680.3732mm"
   height="249.84915mm"
   viewBox="0 0 1680.3732 249.84915"
   version="1.1"
   id="svg1"
   inkscape:version="1.4.2 (f4327f4, 2025-05-13)"
   sodipodi:docname="logoCwcAu.svg"
   inkscape:export-filename="logoCwcAu.png"
   inkscape:export-xdpi="96"
   inkscape:export-ydpi="96"
   xmlns:inkscape="http://www.inkscape.org/namespaces/inkscape"
   xmlns:sodipodi="http://sodipodi.sourceforge.net/DTD/sodipodi-0.dtd"
   xmlns="http://www.w3.org/2000/svg"
   xmlns:svg="http://www.w3.org/2000/svg"
   xmlns:rdf="http://www.w3.org/1999/02/22-rdf-syntax-ns#"
   xmlns:cc="http://creativecommons.org/ns#"
   xmlns:dc="http://purl.org/dc/elements/1.1/">
  <title
     id="title1">logoCwcAu</title>
  <sodipodi:namedview
     id="namedview1"
     pagecolor="#505050"
     bordercolor="#eeeeee"
     borderopacity="1"
     inkscape:showpageshadow="0"
     inkscape:pageopacity="0"
     inkscape:pagecheckerboard="0"
     inkscape:deskcolor="#505050"
     inkscape:document-units="mm"
     showgrid="true"
     inkscape:zoom="0.18384776"
     inkscape:cx="1958.1419"
     inkscape:cy="285.56235"
     inkscape:window-width="1920"
     inkscape:window-height="1009"
     inkscape:window-x="-8"
     inkscape:window-y="-8"
     inkscape:window-maximized="1"
     inkscape:current-layer="g90"
     inkscape:export-bgcolor="#13313300"
     inkscape:lockguides="false">
    <inkscape:grid
       id="grid1"
       units="mm"
       originx="236.74617"
       originy="62.591651"
       spacingx="0.99999998"
       spacingy="1"
       empcolor="#0099e5"
       empopacity="0.30196078"
       color="#0099e5"
       opacity="0.14901961"
       empspacing="5"
       enabled="true"
       visible="true" />
  </sodipodi:namedview>
  <defs
     id="defs1" />
  <metadata
     id="metadata55">
    <rdf:RDF>
      <cc:Work
         rdf:about="">
        <dc:date>Modifié le : 18/09/2025</dc:date>
        <dc:creator>
          <cc:Agent>
            <dc:title>Béatrice COUDERC</dc:title>
          </cc:Agent>
        </dc:creator>
        <dc:language>Francais</dc:language>
        <dc:subject>
          <rdf:Bag>
            <rdf:li>Développement</rdf:li>
            <rdf:li>web</rdf:li>
            <rdf:li>support</rdf:li>
            <rdf:li>dépannage</rdf:li>
            <rdf:li>informatique</rdf:li>
          </rdf:Bag>
        </dc:subject>
        <dc:rights>
          <cc:Agent>
            <dc:title>(c) 2025 CelticWebCraft - Tous droits réservés</dc:title>
          </cc:Agent>
        </dc:rights>
        <dc:publisher>
          <cc:Agent>
            <dc:title>CelticWebCraft</dc:title>
          </cc:Agent>
        </dc:publisher>
        <dc:identifier>https://bcouderc.github.io/celticwebcraft/</dc:identifier>
        <dc:coverage>2025 - Présent - Tout support (web, print)</dc:coverage>
        <dc:source>Création originale par CelticWebCraft (Inkscape)</dc:source>
        <dc:relation>Lié aux projets GitHub : https://github.com/bcouderc/</dc:relation>
        <dc:description>Portfolio et vitrine de CelticWebCraft, développeur web freelance à Guingamp (Côtes-d’Armor), spécialisé dans la création de sites vitrines modernes, responsive et optimisés.</dc:description>
        <dc:title>logoCwcAu</dc:title>
      </cc:Work>
    </rdf:RDF>
  </metadata>
  <g
     id="g93"
     inkscape:label="cwc_complet"
     transform="matrix(1.7200728,0,0,1.7200728,-5.5425327e-7,0.00430502)"
     style="display:inline">
    <g
       id="g90"
       transform="matrix(1.0650383,0.99316429,-0.99316429,1.0650383,81.422526,-112.65043)"
       inkscape:label="logo">
      <path
         id="path76"
         style="display:inline;opacity:1;fill:#ffb42c;fill-opacity:1;stroke:none;stroke-width:0.291932;stroke-opacity:1"
         d="m 48.659664,60.374035 c -3.907732,3.578266 -6.450446,8.647344 -6.70182,14.35897 -0.478072,10.862594 7.503604,20.137865 18.110726,21.454468 -10.681776,0.379658 -19.447519,8.918077 -19.925591,19.780677 -0.502744,11.42326 8.350076,21.0912 19.773323,21.59395 10.862148,0.47805 20.137174,-7.50309 21.454376,-18.10956 0.380087,10.68138 8.91816,19.44663 19.780452,19.9247 11.42326,0.50274 21.09121,-8.35007 21.59396,-19.77333 0.47806,-10.8623 -7.50316,-20.137403 -18.10985,-21.454395 10.68412,-0.376401 19.44672,-8.916342 19.92489,-19.781175 0.50275,-11.423253 -8.34993,-21.091048 -19.77319,-21.593793 l -1.3e-4,-1.58e-4 C 93.924326,56.296324 84.649113,64.277863 83.332365,74.884824 82.95257,64.203173 74.414296,55.43775 63.551795,54.959681 57.840169,54.708308 52.567397,56.795768 48.659664,60.374035 Z m 2.471429,2.699005 c 3.21698,-2.945755 7.557708,-4.664333 12.259724,-4.457341 9.404043,0.413774 16.691977,8.372898 16.277991,17.776932 -0.03874,0.879536 -0.07761,1.730067 -0.117069,2.626662 l 3.692914,0.162578 0.03719,0.0016 3.453168,0.152112 c 0.03734,-0.848435 0.07545,-1.747355 0.114161,-2.626893 0.413774,-9.404042 8.372764,-16.692133 17.776802,-16.278148 9.40404,0.413775 16.69928,8.373181 16.28528,17.777214 -0.41377,9.404044 -8.37289,16.691978 -17.77693,16.277993 -0.76947,-0.03397 -1.53049,-0.05229 -2.30117,-0.08621 l -0.16296,3.47192 c -7.5e-4,-3.3e-5 -0.001,9e-6 -0.002,-2.6e-5 l -0.15748,3.691561 c 0.75744,0.0333 1.53093,0.0693 2.30041,0.10313 9.40405,0.41377 16.69198,8.37289 16.27799,17.77693 -0.41377,9.40404 -8.37274,16.69184 -17.77677,16.27785 -9.404046,-0.41378 -16.692001,-8.37261 -16.278016,-17.77663 0.03317,-0.75141 0.104873,-2.24658 0.104873,-2.24658 l -3.512836,-0.13594 c 2.3e-5,-5.3e-4 -4.3e-5,-0.001 -1.5e-5,-0.002 l -3.679878,-0.1794 c -0.03151,0.7161 -0.05935,1.49558 -0.09232,2.24699 -0.413776,9.40404 -8.372765,16.69213 -17.776797,16.27814 -9.404044,-0.41377 -16.691977,-8.3729 -16.277992,-17.77692 0.413775,-9.40404 8.372898,-16.691984 17.776931,-16.277992 0.872735,0.03845 1.672539,0.07434 2.606595,0.115438 l 0.162302,-3.689428 0.0011,-0.02479 0.15228,-3.459008 C 63.649159,92.755391 62.764957,92.708697 61.89222,92.670284 52.488178,92.256508 45.200242,84.297385 45.614228,74.893352 45.821116,70.19133 47.91432,66.018298 51.131302,63.072544 Z m 1.513704,1.617539 a 14.894551,14.894551 0 0 0 -4.821195,10.329945 14.894551,14.894551 0 0 0 13.98527,15.508814 l -4.95e-4,0.01181 0.181415,0.0079 a 14.894551,14.894551 0 0 0 0.05904,0.0065 14.894551,14.894551 0 0 0 0.339344,0.01116 14.894551,14.894551 0 0 0 0.0013,-4.2e-5 l 5.160522,0.227086 -1.183145,26.883762 0.0624,0.003 a 5.6019332,5.6019332 0 0 1 -5.827082,5.1097 5.6019332,5.6019332 0 0 1 -5.350204,-5.84287 5.6019332,5.6019332 0 0 1 5.842719,-5.35007 5.6019332,5.6019332 0 0 1 0.259535,0.0174 l 2.316172,0.1019 0.368039,-8.36332 0.001,-6e-5 0.0407,-0.92571 -2.45033,-0.1078 a 14.894551,14.894551 0 0 0 -0.126528,-0.006 14.894551,14.894551 0 0 0 -0.01069,1.8e-4 l -0.09041,-0.004 -3.27e-4,0.006 a 14.894551,14.894551 0 0 0 -15.433526,14.22317 14.894551,14.894551 0 0 0 14.225096,15.53494 14.894551,14.894551 0 0 0 15.535099,-14.22523 14.894551,14.894551 0 0 0 -0.0087,-1.4851 14.894551,14.894551 0 0 0 -1.11e-4,-4.5e-4 l 0.181152,-4.1167 12.854787,0.56565 a 14.894551,14.894551 0 0 0 -3.82e-4,0.001 l 13.808783,0.6077 2e-5,0.002 a 5.6019332,5.6019332 0 0 1 5.32833,5.84173 5.6019332,5.6019332 0 0 1 -5.84287,5.35021 5.6019332,5.6019332 0 0 1 -5.350201,-5.84288 5.6019332,5.6019332 0 0 1 0.0176,-0.25967 l 0.101859,-2.31588 -8.36316,-0.36817 -6.6e-5,-0.001 -0.925711,-0.0407 -0.107694,2.44888 a 14.894551,14.894551 0 0 0 -0.0063,0.12798 14.894551,14.894551 0 0 0 2e-4,0.009 l -0.0041,0.0928 0.0061,1.9e-4 a 14.894551,14.894551 0 0 0 14.223005,15.43366 14.894551,14.894551 0 0 0 15.5351,-14.22523 14.894551,14.894551 0 0 0 -13.98543,-15.50868 l 5e-4,-0.0118 -0.18141,-0.008 a 14.894551,14.894551 0 0 0 -0.059,-0.007 14.894551,14.894551 0 0 0 -0.33991,-0.0116 14.894551,14.894551 0 0 0 -0.002,1e-5 l -5.229938,-0.23024 0.565921,-12.856371 a 14.894551,14.894551 0 0 0 0.0011,3.83e-4 l 0.6077,-13.808781 0.0016,-1.9e-5 a 5.6019332,5.6019332 0 0 1 5.84174,-5.328343 5.6019332,5.6019332 0 0 1 5.35036,5.84274 5.6019332,5.6019332 0 0 1 -5.84289,5.350204 5.6019332,5.6019332 0 0 1 -0.25967,-0.0176 l -2.31603,-0.101731 -0.36804,8.363317 -0.001,-9e-5 -0.0407,0.925711 2.46564,0.10858 a 14.894551,14.894551 0 0 0 0.11122,0.0055 14.894551,14.894551 0 0 0 0.008,-2.11e-4 l 0.0928,0.0041 1.8e-4,-0.0061 a 14.894551,14.894551 0 0 0 15.43367,-14.223004 14.894551,14.894551 0 0 0 -14.2251,-15.534944 14.894551,14.894551 0 0 0 -10.713741,3.89515 14.894551,14.894551 0 0 0 -4.795066,10.09012 l -0.01182,-4.95e-4 -0.0079,0.181415 a 14.894551,14.894551 0 0 0 -0.0065,0.05904 14.894551,14.894551 0 0 0 -0.01117,0.339927 14.894551,14.894551 0 0 0 1.9e-5,0.0016 l -0.231252,5.25765 -12.784776,-0.562748 a 14.894551,14.894551 0 0 0 5.16e-4,-9.83e-4 l -13.80878,-0.607701 -2e-5,-0.0016 a 5.6019332,5.6019332 0 0 1 -5.328343,-5.841733 5.6019332,5.6019332 0 0 1 5.842875,-5.350203 5.6019332,5.6019332 0 0 1 5.350069,5.842719 5.6019332,5.6019332 0 0 1 -0.0176,0.259669 l -0.101731,2.316037 8.363316,0.368039 -9.2e-5,0.0012 0.925713,0.0407 0.107809,-2.450331 a 14.894551,14.894551 0 0 0 7.71e-4,-0.0153 14.894551,14.894551 0 0 0 0.0055,-0.111224 14.894551,14.894551 0 0 0 -2.05e-4,-0.0085 l 0.0041,-0.09274 -0.0061,-1.92e-4 A 14.894551,14.894551 0 0 0 63.358544,60.79543 14.894551,14.894551 0 0 0 52.644797,64.690579 Z m 24.182434,26.511497 11.793014,0.519026 -0.517854,11.767068 -11.793147,-0.51919 z"
         inkscape:label="Logo" />
    </g>
    <g
       inkscape:groupmode="layer"
       id="g91"
       inkscape:label="typo"
       style="display:inline;fill:#ebb42c;fill-opacity:1">
      <text
         xml:space="preserve"
         style="font-style:normal;font-variant:normal;font-weight:normal;font-stretch:normal;font-size:45.8611px;font-family:'Space Mono';-inkscape-font-specification:'Space Mono';text-align:start;letter-spacing:1.32292px;word-spacing:1.98173px;writing-mode:lr-tb;direction:ltr;text-anchor:start;opacity:1;fill:#ffb42c;fill-opacity:1;stroke:none;stroke-width:0.269081;stroke-opacity:1"
         x="151.81119"
         y="144.58191"
         id="text90"
         inkscape:label="bvvw"><tspan
           sodipodi:role="line"
           id="tspan90"
           style="font-style:normal;font-variant:normal;font-weight:normal;font-stretch:normal;font-size:45.8611px;font-family:'Space Mono';-inkscape-font-specification:'Space Mono';letter-spacing:1.32292px;word-spacing:1.98173px;fill:#ffb42c;fill-opacity:1;stroke-width:0.269081"
           x="151.81119"
           y="144.58191">Boostez votre Visibilité Web</tspan></text>
      <text
         xml:space="preserve"
         style="font-style:normal;font-variant:normal;font-weight:normal;font-stretch:normal;font-size:88.1944px;font-family:'Zen Dots';-inkscape-font-specification:'Zen Dots';text-align:start;writing-mode:lr-tb;direction:ltr;text-anchor:start;opacity:1;fill:#ffb42c;fill-opacity:1;stroke:none;stroke-width:0.269081;stroke-opacity:1"
         x="151.73465"
         y="63.585548"
         id="text91"
         inkscape:label="cwc"><tspan
           sodipodi:role="line"
           id="tspan91"
           style="font-size:88.1944px;fill:#ffb42c;fill-opacity:1;stroke-width:0.269081"
           x="151.73465"
           y="63.585548">CelticWebCraft</tspan></text>
    </g>
    <g
       inkscape:groupmode="layer"
       id="g92"
       inkscape:label="trait"
       style="display:inline">
      <rect
         style="opacity:1;fill:#09756c;fill-opacity:1;stroke:none;stroke-width:0.318604;stroke-opacity:1"
         id="rect91"
         width="293.76761"
         height="19.457222"
         x="154.16106"
         y="78.203064" />
      <rect
         style="opacity:1;fill:#ffb42c;fill-opacity:1;stroke:none;stroke-width:0.427961;stroke-opacity:1"
         id="rect92"
         width="530.04053"
         height="19.457222"
         x="446.76773"
         y="78.203064" />
    </g>
  </g>
</svg>
