<?xml version="1.0" encoding="UTF-8" standalone="no"?>
<!-- Created with Inkscape (http://www.inkscape.org/) -->

<svg
   width="145.25226mm"
   height="145.25249mm"
   viewBox="0 0 145.25226 145.25249"
   version="1.1"
   id="svg1"
   inkscape:version="1.4.2 (f4327f4, 2025-05-13)"
   sodipodi:docname="logo CWC.svg"
   inkscape:export-filename="logo CWC.png"
   inkscape:export-xdpi="96"
   inkscape:export-ydpi="96"
   xmlns:inkscape="http://www.inkscape.org/namespaces/inkscape"
   xmlns:sodipodi="http://sodipodi.sourceforge.net/DTD/sodipodi-0.dtd"
   xmlns="http://www.w3.org/2000/svg"
   xmlns:svg="http://www.w3.org/2000/svg"
   xmlns:rdf="http://www.w3.org/1999/02/22-rdf-syntax-ns#"
   xmlns:cc="http://creativecommons.org/ns#"
   xmlns:dc="http://purl.org/dc/elements/1.1/">
  <title
     id="title1">logo_CWC</title>
  <sodipodi:namedview
     id="namedview1"
     pagecolor="#505050"
     bordercolor="#eeeeee"
     borderopacity="1"
     inkscape:showpageshadow="0"
     inkscape:pageopacity="0"
     inkscape:pagecheckerboard="0"
     inkscape:deskcolor="#505050"
     inkscape:document-units="mm"
     showgrid="true"
     inkscape:zoom="0.25"
     inkscape:cx="-104"
     inkscape:cy="382"
     inkscape:window-width="1920"
     inkscape:window-height="1009"
     inkscape:window-x="-8"
     inkscape:window-y="-8"
     inkscape:window-maximized="1"
     inkscape:current-layer="svg1">
    <inkscape:grid
       id="grid1"
       units="mm"
       originx="-35.654934"
       originy="-42.005013"
       spacingx="0.99999998"
       spacingy="1"
       empcolor="#0099e5"
       empopacity="0.30196078"
       color="#0099e5"
       opacity="0.14901961"
       empspacing="5"
       enabled="true"
       visible="true" />
  </sodipodi:namedview>
  <defs
     id="defs1" />
  <g
     id="g55"
     transform="matrix(1.0650383,0.99316429,-0.99316429,1.0650383,81.422526,-112.65043)">
    <g
       inkscape:groupmode="layer"
       id="layer3"
       inkscape:label="Contour"
       style="display:inline">
      <g
         id="g54">
        <path
           id="path23"
           style="display:inline;opacity:1;fill:#ffb42c;fill-opacity:1;stroke:none;stroke-width:0.291932;stroke-opacity:1"
           d="m 61.714062,55.827083 c -11.434308,10e-7 -20.703645,9.269338 -20.703645,20.703646 0,11.434308 9.269337,20.703645 20.703645,20.703646 0.872319,7.2e-5 1.743567,-0.164848 2.609144,-0.164848 v -3.487125 c -0.850217,0 -1.735563,-0.0078 -2.609144,-0.0078 -9.413141,1.05e-4 -17.044026,-7.63078 -17.04392,-17.043921 -1.06e-4,-9.413141 7.630779,-17.044026 17.04392,-17.043921 9.413142,-1.06e-4 17.044027,7.630779 17.043921,17.043921 -3.1e-5,0.880389 -0.0015,1.731833 -0.0015,2.629297 h 3.733623 c 0,-0.905526 -0.07228,-1.750199 -0.07235,-2.629297 0,-11.434308 -9.269338,-20.703646 -20.703646,-20.703646 z"
           sodipodi:nodetypes="ssccccccscccss" />
        <path
           id="path24"
           style="opacity:1;fill:#ffb42c;fill-opacity:1;stroke:none;stroke-width:0.291932;stroke-opacity:1"
           d="m 102.98906,55.827083 c -11.434307,2e-6 -20.703643,9.269339 -20.703643,20.703646 -6.8e-5,0.879098 0.167431,1.744818 0.167431,2.629297 h 3.493844 c 0,-0.849257 -0.0015,-1.748908 -0.0015,-2.629297 -1.06e-4,-9.41314 7.630778,-17.044025 17.043918,-17.043921 9.41314,-1.05e-4 17.05126,7.63078 17.05115,17.043921 1.1e-4,9.413141 -7.63078,17.044026 -17.04392,17.043921 -0.77022,-1.03e-4 -1.53127,0.01499 -2.3027,0.01499 l -0.0103,3.50573 c 0.76873,0 1.54368,0.138936 2.31304,0.139009 11.43431,2e-6 20.69642,-9.269336 20.69642,-20.703646 0,-11.43431 -9.26934,-20.703648 -20.70365,-20.703646 z"
           sodipodi:nodetypes="sccccccccccsss" />
        <path
           id="path25"
           style="opacity:1;fill:#ffb42c;fill-opacity:1;stroke:none;stroke-width:0.291932;stroke-opacity:1"
           d="m 61.714062,97.102083 c -11.434308,1e-6 -20.703646,9.269337 -20.703645,20.703647 3e-6,11.43431 9.26934,20.70364 20.703645,20.70364 11.434306,0 20.703643,-9.26933 20.703646,-20.70364 1.2e-5,-0.75132 0.01784,-1.51183 0.01784,-2.23142 l -3.684286,-0.0175 c 0,0.71679 0.0066,1.49683 0.0067,2.24896 1.05e-4,9.41314 -7.63078,17.04403 -17.043921,17.04392 -9.413141,1.1e-4 -17.044025,-7.63078 -17.04392,-17.04392 -1.05e-4,-9.41314 7.630779,-17.04403 17.04392,-17.04392 0.873581,4e-5 1.674183,8.2e-4 2.609144,8.2e-4 v -3.717867 c -0.869929,0 -1.736825,0.05725 -2.609144,0.05732 z"
           sodipodi:nodetypes="cssscccccccccc" />
        <path
           id="path26"
           style="opacity:1;fill:#ffb42c;fill-opacity:1;stroke:none;stroke-width:0.291932;stroke-opacity:1"
           d="m 102.98906,97.102083 c -0.76936,7.3e-5 -1.51791,-0.03669 -2.30787,-0.03669 l 0.005,3.694867 c 0.75818,0 1.53248,0.002 2.3027,0.002 9.41314,-1.1e-4 17.04403,7.63078 17.04392,17.04392 1.1e-4,9.41314 -7.63078,17.04403 -17.04392,17.04392 -9.41314,1e-4 -17.044023,-7.63078 -17.043918,-17.04392 1.04e-4,-0.75213 0.0061,-2.24896 0.0061,-2.24896 l -3.520618,0.0187 c 0,0.75292 -0.145223,1.47895 -0.145211,2.23027 3e-6,11.4343 9.269339,20.70364 20.703647,20.70364 11.43431,0 20.70365,-9.26933 20.70365,-20.70364 0,-11.43431 -9.26934,-20.703649 -20.70365,-20.703647 z"
           sodipodi:nodetypes="ccccccccccsscc" />
      </g>
    </g>
    <g
       inkscape:label="Initial"
       inkscape:groupmode="layer"
       id="layer1"
       style="display:inline">
      <g
         id="g10"
         inkscape:label="HD">
        <rect
           style="fill:#ffb42c;fill-opacity:1;stroke:none;stroke-width:0.528325;stroke-opacity:1"
           id="rect4"
           width="9.2861099"
           height="36.123161"
           x="88.374657"
           y="76.319336" />
        <g
           id="g9"
           inkscape:label="CHD">
          <path
             id="path3"
             style="fill:#ffb42c;fill-opacity:1;stroke:none;stroke-width:0.0670254;stroke-opacity:1"
             d="M 103.26533,61.665695 A 14.894551,14.894551 0 0 0 88.370775,76.560247 14.894551,14.894551 0 0 0 97.661848,90.360669 V 76.538365 h 0.0015 a 5.6019332,5.6019332 0 0 1 5.601942,-5.580052 5.6019332,5.6019332 0 0 1 5.60193,5.601934 5.6019332,5.6019332 0 0 1 -5.60193,5.601932 5.6019332,5.6019332 0 0 1 -0.26015,-0.0061 h -2.31826 v 9.073793 a 14.894551,14.894551 0 0 0 2.57841,0.224876 14.894551,14.894551 0 0 0 14.89455,-14.89455 14.894551,14.894551 0 0 0 -14.89455,-14.894553 z" />
          <rect
             style="fill:#ffb42c;fill-opacity:1;stroke:none;stroke-width:0.264098;stroke-opacity:1"
             id="rect8"
             width="2.68063"
             height="0.92667359"
             x="100.68586"
             y="90.527534" />
        </g>
      </g>
      <g
         id="g12"
         style="fill:#ffb42c;fill-opacity:1"
         transform="rotate(90,82.471516,97.326036)"
         inkscape:label="BD">
        <rect
           style="fill:#ffb42c;fill-opacity:1;stroke:none;stroke-width:0.528325;stroke-opacity:1"
           id="rect10"
           width="9.2861099"
           height="36.123161"
           x="88.374657"
           y="76.319336" />
        <g
           id="g11"
           style="fill:#ffb42c;fill-opacity:1"
           inkscape:label="CBD">
          <path
             id="path10"
             style="fill:#ffb42c;fill-opacity:1;stroke:none;stroke-width:0.0670254;stroke-opacity:1"
             d="M 103.26533,61.665695 A 14.894551,14.894551 0 0 0 88.370775,76.560247 14.894551,14.894551 0 0 0 97.661848,90.360669 V 76.538365 h 0.0015 a 5.6019332,5.6019332 0 0 1 5.601942,-5.580052 5.6019332,5.6019332 0 0 1 5.60193,5.601934 5.6019332,5.6019332 0 0 1 -5.60193,5.601932 5.6019332,5.6019332 0 0 1 -0.26015,-0.0061 h -2.31826 v 9.073793 a 14.894551,14.894551 0 0 0 2.57841,0.224876 14.894551,14.894551 0 0 0 14.89455,-14.89455 14.894551,14.894551 0 0 0 -14.89455,-14.894553 z" />
          <rect
             style="fill:#ffb42c;fill-opacity:1;stroke:none;stroke-width:0.264098;stroke-opacity:1"
             id="rect11"
             width="2.68063"
             height="0.92667359"
             x="100.68586"
             y="90.527534" />
        </g>
      </g>
      <g
         id="g14"
         transform="rotate(180,82.507498,97.340003)"
         inkscape:label="BG">
        <rect
           style="fill:#ffb42c;fill-opacity:1;stroke:none;stroke-width:0.528325;stroke-opacity:1"
           id="rect12"
           width="9.2861099"
           height="36.123161"
           x="88.444809"
           y="76.319336" />
        <g
           id="g13"
           inkscape:label="CBG">
          <path
             id="path12"
             style="fill:#ffb42c;fill-opacity:1;stroke:none;stroke-width:0.0670254;stroke-opacity:1"
             d="M 103.26533,61.665695 A 14.894551,14.894551 0 0 0 88.370775,76.560247 14.894551,14.894551 0 0 0 97.661848,90.360669 V 76.538365 h 0.0015 a 5.6019332,5.6019332 0 0 1 5.601942,-5.580052 5.6019332,5.6019332 0 0 1 5.60193,5.601934 5.6019332,5.6019332 0 0 1 -5.60193,5.601932 5.6019332,5.6019332 0 0 1 -0.26015,-0.0061 h -2.31826 v 9.073793 a 14.894551,14.894551 0 0 0 2.57841,0.224876 14.894551,14.894551 0 0 0 14.89455,-14.89455 14.894551,14.894551 0 0 0 -14.89455,-14.894553 z" />
          <rect
             style="fill:#ffb42c;fill-opacity:1;stroke:none;stroke-width:0.264098;stroke-opacity:1"
             id="rect13"
             width="2.68063"
             height="0.92667359"
             x="100.68586"
             y="90.527534" />
        </g>
      </g>
      <g
         id="g22"
         inkscape:label="HG">
        <rect
           style="fill:#ffb42c;fill-opacity:1;stroke:none;stroke-width:0.528325;stroke-opacity:1"
           id="rect14"
           width="9.2861099"
           height="36.123161"
           x="-91.450829"
           y="61.536781"
           transform="rotate(-90)" />
        <g
           id="g15"
           style="fill:#ffb42c;fill-opacity:1"
           transform="rotate(-90,82.521465,97.30402)"
           inkscape:label="CHG">
          <path
             id="path14"
             style="fill:#ffb42c;fill-opacity:1;stroke:none;stroke-width:0.0670254;stroke-opacity:1"
             d="M 103.26533,61.665695 A 14.894551,14.894551 0 0 0 88.370775,76.560247 14.894551,14.894551 0 0 0 97.661848,90.360669 V 76.538365 h 0.0015 a 5.6019332,5.6019332 0 0 1 5.601942,-5.580052 5.6019332,5.6019332 0 0 1 5.60193,5.601934 5.6019332,5.6019332 0 0 1 -5.60193,5.601932 5.6019332,5.6019332 0 0 1 -0.26015,-0.0061 h -2.31826 v 9.073793 a 14.894551,14.894551 0 0 0 2.57841,0.224876 14.894551,14.894551 0 0 0 14.89455,-14.89455 14.894551,14.894551 0 0 0 -14.89455,-14.894553 z" />
          <rect
             style="display:inline;fill:#ffb42c;fill-opacity:1;stroke:none;stroke-width:0.264098;stroke-opacity:1"
             id="rect15"
             width="2.68063"
             height="0.92667359"
             x="100.68586"
             y="90.527534" />
        </g>
      </g>
    </g>
  </g>
  <metadata
     id="metadata1">
    <rdf:RDF>
      <cc:Work
         rdf:about="">
        <dc:creator>
          <cc:Agent>
            <dc:title>Béatrice COUDERC</dc:title>
          </cc:Agent>
        </dc:creator>
        <dc:language>Francais</dc:language>
        <dc:subject>
          <rdf:Bag>
            <rdf:li>Développement</rdf:li>
            <rdf:li>web</rdf:li>
            <rdf:li>support</rdf:li>
            <rdf:li>dépannage</rdf:li>
            <rdf:li>informatique</rdf:li>
          </rdf:Bag>
        </dc:subject>
        <dc:date>Modifié le : 18/09/2025</dc:date>
        <dc:rights>
          <cc:Agent>
            <dc:title>(c) 2025 CelticWebCraft - Tous droits réservés</dc:title>
          </cc:Agent>
        </dc:rights>
        <dc:publisher>
          <cc:Agent>
            <dc:title>CelticWebCraft</dc:title>
          </cc:Agent>
        </dc:publisher>
        <dc:identifier>https://bcouderc.github.io/celticwebcraft/</dc:identifier>
        <dc:coverage>2025 - Présent - Tout support (web, print)</dc:coverage>
        <dc:source>Création originale par CelticWebCraft (Inkscape)</dc:source>
        <dc:relation>Lié aux projets GitHub : https://github.com/bcouderc/</dc:relation>
        <dc:description>Portfolio et vitrine de CelticWebCraft, développeur web freelance à Guingamp (Côtes-d’Armor), spécialisé dans la création de sites vitrines modernes, responsive et optimisés.</dc:description>
        <dc:title>logo_CWC</dc:title>
      </cc:Work>
    </rdf:RDF>
  </metadata>
</svg>
