<?xml version="1.0" encoding="UTF-8"?>
<!-- Generator: Adobe Illustrator 25.0.0, SVG Export Plug-In . SVG Version: 6.00 Build 0)  -->
<svg version="1.1" id="Calque_1" xmlns="http://www.w3.org/2000/svg" xmlns:xlink="http://www.w3.org/1999/xlink" x="0px" y="0px" viewBox="0 0 307.8 306.3" style="enable-background:new 0 0 307.8 306.3;" xml:space="preserve">
<style type="text/css">
	.st0{fill:#BFD135;}
	.st1{fill:#E3E5E7;}
	.st2{fill:#632576;}
	.st3{fill:#632676;}
	.st4{fill:#652978;}
	.st5{fill:#642777;}
</style>
<g>
	<path class="st0" d="M150.2,95.5c2.9-2.4,7.3-1.6,9.2,2.3c0.2,0.5,0.4,0.9,0.6,1.4c0.6,0.5,0.8,1.2,0.6,1.9   c0.9,4.7,0.9,9.5,0.7,14.2c-0.5,9-1.1,17.9-2,26.9c-1.1,10.7-2.6,21.3-4.7,31.8c-2.3,11.6-5.9,22.6-12.6,32.5   c-4.2,6.2-9.4,11.6-14.7,16.9c-12.3,12.3-27,21.4-42,30c-4,2.3-8.2,4.5-12.5,6.4c-0.9,0.4-1.8,0.7-2.7,0.9   c-3.5,0.7-5.6-1.1-5.4-4.6c-0.2-0.6,0.1-1.1,0.5-1.6c0.8-1.2,1.8-2.1,3-2.9c3.8-2.5,7.7-4.6,11.6-7c8.9-5.4,17.6-11.2,25.5-18   c7.2-6.1,13.4-13.1,18.7-20.9c3.1-4.6,6.1-9.2,8.6-14.1c3.7-7.2,6-14.8,7.3-22.7c0.9-5.3,1.8-10.6,2.3-16c0.4-4.2,0.8-8.3,1.1-12.5   c0.3-4,0.6-8,0.9-11.9c0.2-2.9,0.3-5.8,0.6-8.7c0.5-6.3,0.7-12.6,2.3-18.7c0.4-1.7,1.1-3.3,2.1-4.7   C149.4,95.9,149.7,95.5,150.2,95.5z"/>
	<path class="st0" d="M129.1,22.8c1.7-1.2,3.4-2.1,5.5-1.9c5,0.5,8,4.7,6.7,9.6c-2.4,8.9-4.9,17.8-7.4,26.8   c-2.8,10.4-5.7,20.8-7.7,31.4c-1.9,10.4-3.6,20.9-4,31.5c-0.4,10.8,1.6,21.1,4.7,31.3c1.6,5.1,3.4,10,5.7,14.8   c2.9,3,2.5,9-0.9,11.4c-0.5,0.4-1.1,0.8-1.8,0.7c-3.2,0.7-6.1,0.1-8.5-2.2c-1-0.4-1.5-1.3-2.1-2.1c-2.7-3.8-4.4-8-6-12.4   c-3.4-9.6-5.8-19.5-6.9-29.6c-0.5-4.7-0.7-9.4-0.4-14.2c0.3-7.1,1.1-14.1,2.2-21.1c1.9-11.5,4.7-22.8,7.7-34.1   c2.7-10.2,5.8-20.4,8.1-30.7c0.6-2.9,1.5-5.6,3.4-8C127.9,23.5,128.3,22.9,129.1,22.8z"/>
	<path class="st0" d="M188.3,39.3c1-0.2,2-0.3,3-0.3c3.9,0,6.3,2.2,6.8,6c0.5,3.3,0.1,6.5-0.3,9.7c-1.3,8.6-3,17-4.1,25.6   c-0.4,3.4-0.8,6.7-0.8,10.1c0,1.9,0.8,3.4,2.5,4.4c0.4,0.3,0.9,0.5,1.3,0.8c3.6,2,4.1,4,3.5,8c-0.4,2.7-2.1,4.5-4.7,4.9   c-3.4,0.5-4.9,2.4-5.6,5.6c-1.5,6.8-2.6,13.6-2.7,20.5c0,5.1,1.2,9.7,4.9,13.4c1.6,1.6,3,3.4,4.4,5.2c2.6,3.2,2.5,6.3-0.1,9.6   c-2.3,2.9-6.1,3.8-9.4,2.2c-0.3-0.1-0.6-0.3-0.9-0.4c-0.9-0.2-1.6-0.7-2.2-1.4c-2.5-2.8-5.4-5.3-7.6-8.5c-1.9-2.8-3.7-5.6-4.8-8.8   c-1-3.1-1.3-6.3-1-9.6c0.6-6.8,1.8-13.5,2.6-20.2c0.3-2.1,0.4-4.3,0.3-6.5c0-1.5-0.6-2.7-1.8-3.6c-1.2-0.8-2.3-1.8-3.3-3   c-2.4-2.8-1.7-8.5,2.4-10c1-0.4,1.9-0.7,2.9-1c2-0.6,3-1.8,3.2-3.9c1.5-13,3.6-25.9,5.5-38.8c0.3-2.1,0.8-4.2,1.6-6.1   c0.4-1.1,1.1-2,1.9-2.9C186.6,39.9,187.4,39.4,188.3,39.3z"/>
	<path class="st1" d="M130,178.4c4.7-1.9,5-6.6,3.6-10c-0.3-0.7-0.6-1.4-0.9-2.1c0.7-1.2,0.7-2.5,0.8-3.8c0.7-4.8,1.4-9.6,1.9-14.4   c0.4-3.5,0.5-7,0.8-10.5c0.3-4,0.6-7.9,0.9-11.9c0.2-2.9,0.3-5.8,0.5-8.7c0.5-6.1,0.6-12.3,2.6-18.2c0.6-1.7,1.4-3.3,2.9-4.4   c2.4-1.6,5.7-0.8,6.9,0.9c-2.4,2.8-3.1,6.2-3.6,9.6c-1,6.5-1.3,13.2-1.7,19.8c-0.5,7.5-1,15-1.7,22.6c-0.9,10-2.2,19.9-4.6,29.6   c-2.3,9-6.4,17.1-11.5,24.8c-4.8,7.4-10.1,14.4-16.5,20.5c-7.5,7.1-15.7,13.2-24.4,18.7c-5.7,3.7-11.6,7-17.4,10.6   c-1.8,1.1-3.2,2.5-4,4.5c-1.4,0.3-2.8,0.3-4-0.5c-1.5-1-2-2.7-1.3-4.4c1-2.5,3.2-3.7,5.4-5c7.1-4.3,14.3-8.4,21.1-13.1   c4.9-3.4,9.6-6.9,14-10.9c1.5-1.4,3.1-2.7,4.5-4.1c4.7-4.6,8.8-9.6,12.5-15c3.6-5.1,6.9-10.4,9.5-16   C127.9,184.3,129.1,181.4,130,178.4z"/>
	<path class="st1" d="M129.1,22.8c-3.1,2.9-4.1,6.7-4.9,10.7c-2.2,9.4-5,18.7-7.4,28.1c-2.8,10.6-5.5,21.3-7.5,32.1   c-1.2,6.5-2.1,13-2.5,19.6c-0.4,5.3-0.5,10.6-0.1,15.9c0.4,5.8,1.5,11.5,2.8,17.2c1.7,7.2,3.7,14.3,6.7,21.1   c1.4,3.2,3.1,6.1,5.4,8.7c-4.6,0.4-7.3-2.3-9.4-5.7c-3.3-5.5-5.4-11.5-7.2-17.7c-1.4-4.8-2.5-9.7-3.4-14.6c-0.7-3.6-1.1-7.3-1.4-11   c-0.3-3.5-0.2-7-0.1-10.5c0.1-3.5,0.5-7,0.8-10.6c0.7-7,2-13.8,3.4-20.6c1.4-6.9,3.2-13.8,5-20.6c1.7-6.6,3.5-13.2,5.4-19.8   c1.5-5.2,2.4-10.5,4-15.6c0.9-2.9,2.7-5.3,5.6-6.5C125.7,22.3,127.4,21.9,129.1,22.8z"/>
	<path class="st1" d="M188.3,39.3c-2.4,1-3.7,2.9-4.4,5.3c-1.2,3.7-1.5,7.5-2.1,11.3c-0.7,4.5-1.4,9-2,13.5   c-0.6,4.6-1.2,9.2-1.8,13.7c-0.3,2-0.5,4-0.8,5.9c-0.2,1.6-1.1,2.6-2.6,3.2c-0.9,0.3-1.7,0.6-2.6,0.8c-5.2,1.2-6.1,8-2.3,11   c0.7,0.6,1.4,1.3,2.2,1.8c1.5,0.9,1.9,2.2,2,3.8c0.1,3.5-0.4,6.9-0.8,10.4c-0.7,5.8-1.8,11.5-2.2,17.3c-0.4,5.8,1.6,11,4.8,15.7   c2.9,4.4,6.6,8.1,10.5,11.6c-4.3,1.5-7.6-0.5-10.1-3.4c-0.8-1-1.8-1.9-2.7-2.8c-3.6-3.7-6.3-8-8.3-12.7c-0.7-1.8-1-3.7-1.1-5.6   c-0.2-4.5,0.4-8.9,1.1-13.4c0.6-4,1.3-8,1.6-12c0.1-2.1,0.6-4.1,0.3-6.3c-0.2-1.3-0.6-2.4-1.7-3.1c-1.7-1.1-3.2-2.5-4.3-4.2   c-0.2-0.6-0.4-1.3-0.6-1.9c0.4-0.5,0.3-1.2,0.4-1.7c0.3-3,2.2-4.4,4.8-5.2c0.4-0.1,0.8-0.2,1.3-0.4c2.7-0.9,3.5-2,3.8-4.8   c0.3-2.8,0.6-5.6,1-8.4c0.4-2.9,0.7-5.7,1.2-8.6c0.7-4.4,1.5-8.8,2.1-13.3c0.5-3.7,0.9-7.4,1.8-11c0.3-1.5,0.9-2.9,1.6-4.2   c1.5-2.9,4.7-3.5,7.4-3.2C186.3,38.6,187.3,39,188.3,39.3z"/>
	<path class="st2" d="M235.8,144.2c-0.3,26.4-10.2,51.1-29.3,72.1c-7.5,8.2-16,15.1-25.4,21c-0.2,0.1-0.3,0.2-0.5,0.3   c-0.8,0.5-1.6,1-2.3,0c-0.7-1.1,0.2-1.6,1-2.1c17.1-10.8,30.7-24.9,40.3-42.7c6.5-12.2,10.5-25.1,11.8-38.9   c2.5-27.6-5-52.3-21.5-74.4c-2.2-2.9-4.6-5.7-7-8.4c-1.3-1.4-1.3-2.8-0.1-3.9c1.2-1,2.6-0.9,3.9,0.6c12.2,13.6,20.9,29.2,25.7,46.9   C234.6,123.6,235.7,132.8,235.8,144.2z"/>
	<path class="st2" d="M19.2,145.5c0.1-25.3,8.3-47.8,23.6-67.8c4.9-6.4,10.5-12.2,16.5-17.5c0.6-0.6,1.3-0.9,2-0.3   c0.5,0.4,0.5,1,0.2,1.5c-0.2,0.3-0.5,0.5-0.7,0.8C50.3,71.6,41.7,82.5,35.1,95c-6.2,11.8-10.3,24.2-11.6,37.5   c-3.2,31.8,6.3,59.4,27.6,83c4.2,4.7,8.9,8.9,13.9,12.8c1.5,1.1,1.8,2.6,0.8,3.8c-0.9,1.2-2.5,1.3-3.9,0.1   c-17.4-13.9-30.1-31.1-37.3-52.3c-3.5-10.3-5.3-20.8-5.5-31.7C19.2,147.3,19.2,146.4,19.2,145.5z"/>
	<path class="st2" d="M142.6,254.9c-11.6,0-22.9-1.7-34-4.9c-0.5-0.1-1-0.2-1.3-0.7c-0.3-0.5-0.3-0.9,0-1.3c0.4-0.6,0.9-0.6,1.5-0.5   c1.3,0.3,2.6,0.7,3.9,1c13.1,3.3,26.4,4.4,39.9,3c24.1-2.5,45-12.1,62.4-28.9c15.9-15.4,25.7-34.1,30.1-55.8c0.8-4,1.4-8,1.7-12.1   c0.2-2.2,1.5-3.3,3.2-2.8c1.2,0.4,1.8,1.2,1.8,2.6c-0.2,3.3-0.7,6.5-1.3,9.7c-2.8,15.1-8.1,29.2-16.6,42   c-13.5,20.3-31.8,34.5-54.7,42.6C167.4,253,155.1,254.9,142.6,254.9z"/>
	<path class="st2" d="M8,144.6c0-22.5,5.8-43.3,18.4-62c16.2-24,38.7-38.9,66.8-45.4c3.3-0.8,6.7-1.3,10.1-1.8   c1.2-0.2,1.8,0.2,1.9,1.2c0.1,1.1-0.5,1.4-1.5,1.6c-23.6,3.6-44.1,13.4-60.9,30.5c-14.6,14.9-23.9,32.7-27.9,53.1   c-2,10.2-2.6,20.4-1.7,30.7c0.1,1.7-0.8,2.8-2.3,2.9c-1.6,0.1-2.6-0.9-2.7-2.6C8.1,151.4,8,150,8,148.6C7.9,147.3,8,145.9,8,144.6z   "/>
	<path class="st1" d="M78.7,106c-3.1,0.5-6.1,1.4-9,2.8c-4.3,2.2-8.2,5-11.7,8.3c-9.9,9.4-17,20.5-21.5,33.4   c-1.8,5.3-2.9,10.8-2.5,16.4c0.3,5.3,2,9.9,6.1,13.4c0.1,0.1,0.2,0.3,0.3,0.5c-3.2-0.7-5.5-2.7-7.4-5.2c-2.1-2.8-3-6-3.3-9.4   c-0.7-7.5,1.3-14.6,4.1-21.4c3.1-7.7,7.4-14.7,12.7-21.1c4.5-5.4,9.5-10.2,15.5-13.8c4.3-2.5,8.9-4.2,14-4   C77,105.8,77.8,105.9,78.7,106z"/>
	<path class="st0" d="M155.2,57.1c1.5-0.5,3.1-0.9,4.7-1c4.6-0.2,7.5,2.4,7.7,6.9c0.4,6.9-5.9,15.2-14,14.6   c-1.1-0.1-2.1-0.4-3.1-0.8c-2.1-0.6-3-2.2-3.6-4c-1.3-4.1-0.2-7.9,2.3-11.3c0.9-1.3,2-2.4,3.3-3.3   C153.3,57.7,154.2,57.2,155.2,57.1z"/>
	<path class="st1" d="M155.2,57.1c-3,1.5-5.5,3.7-7.1,6.7c-1.3,2.5-1.9,5.1-1.3,7.9c0.4,2.3,1.7,4,3.6,5.2c-3.1,1.2-6.1,1.3-8.8-0.9   c-1.6-1.2-2.3-3-2.5-5c-0.4-5.4,2-9.3,6.3-12.4c1.9-1.4,4.2-1.9,6.5-2.1C153,56.5,154.1,56.8,155.2,57.1z"/>
	<path class="st1" d="M80.1,160.8c2.5-1.2,4.2-0.8,5.8,1.5c1.9,2.6,3.1,5.6,4.6,8.4c1.6,3,3.2,6,5.6,8.6c-3.7,0.6-5.9-1.6-7.8-4.3   c-2.4-3.5-4.2-7.3-6.1-11C81.6,162.9,81.1,161.7,80.1,160.8z"/>
	<path class="st2" d="M154.6,270.6c1-2.2,4.6-2.4,5.7-0.1c1-1.6,2.2-2.2,3.7-1.9c1.5,0.3,2.3,1.1,2.5,3.1c0.2,2.1,0.1,4.1,0.2,6.2   c0,0.7-0.4,0.9-1,0.9c-0.7,0-1.4,0-1.5-0.9c-0.1-1.3-0.1-2.5-0.2-3.8c0-0.6,0-1.3-0.1-1.9c-0.1-0.8-0.5-1.5-1.6-1.4   c-0.9,0.1-1.7,0.9-1.7,1.8c0,1.8,0,3.5,0.1,5.3c0,0.9-0.3,1.1-1.1,1.1c-0.7,0-1.5,0.1-1.4-1c0-1.6-0.1-3.2-0.1-4.8   c0-1-0.1-2-1.4-2.1c-1-0.1-2.1,1-2.1,2.3c0,1.5,0.1,3,0.2,4.5c0.1,0.9-0.1,1.3-1.1,1.4c-1,0.1-1.4-0.2-1.5-1.2   c-0.1-2.7-0.2-5.3-0.3-8c0-0.5,0.2-0.8,0.6-0.9c0.6-0.1,1.3-0.1,1.7,0.5C154.4,269.9,154.5,270.3,154.6,270.6z"/>
	<path class="st2" d="M106.8,271.6c-3,0-5.3-1.8-5.5-4.3c-0.1-0.8,0.1-1.6,0.3-2.4c0.7-2.1,1.4-4.2,2-6.3c0.3-0.9,0.8-0.8,1.5-0.6   c0.7,0.3,1.4,0.5,1,1.5c-0.6,1.6-1.2,3.2-1.7,4.8c-0.2,0.7-0.4,1.4-0.5,2.1c-0.2,1.4,0.4,2.3,1.7,2.7c1.2,0.4,2.1,0.1,2.8-1.2   c1.1-2.1,1.7-4.4,2.4-6.6c0.3-0.9,0.6-1.2,1.6-0.8c0.8,0.3,1.4,0.6,1,1.6c-0.9,2.3-1.5,4.6-2.7,6.8   C109.8,270.5,108.7,271.6,106.8,271.6z"/>
	<path class="st2" d="M285.2,176.2c-0.8-1-1-2-0.8-3c0.5-2.1,2.2-3.1,4.5-2.4c1.8,0.5,3.5,1.2,5.3,1.8c0.8,0.3,1,0.7,0.7,1.5   c-0.3,0.8-0.7,1.3-1.6,1c-1.3-0.4-2.6-1-3.9-1.4c-0.5-0.2-1.1-0.4-1.6-0.4c-1.2-0.1-2,0.9-1.7,2c0.2,1,0.7,1.7,1.8,2.1   c1.4,0.4,2.7,0.9,4.1,1.3c0.8,0.2,1.1,0.6,0.8,1.5c-0.3,0.8-0.6,1.3-1.5,1c-2.6-0.9-5.1-1.7-7.7-2.6c-0.4-0.1-0.7-0.4-0.6-0.9   c0.1-0.6,0.3-1.3,1.1-1.4C284.4,176.2,284.7,176.2,285.2,176.2z"/>
	<path class="st2" d="M250.8,240.5c0.3,1.5-0.4,2.5-1.5,3.3c-1.2,0.8-2.3,0.6-3.5-0.1c-1.1-0.8-1.9-2-2.7-3   c-0.5-0.6-1.1-1.3-1.6-1.9c-0.5-0.6-0.8-1.1-0.1-1.7c0.7-0.6,1.4-0.8,2.1,0c1,1.2,1.9,2.4,2.9,3.5c1.1,1.2,1.9,1.5,2.7,0.8   c0.9-0.8,0.9-2.3,0-3.3c-1-1.1-1.9-2.2-2.9-3.3c-0.6-0.6-0.6-1.1,0-1.6c0.6-0.5,1.2-1,1.8-0.2c1.8,2.1,3.7,4.2,5.5,6.3   c0.3,0.3,0.2,0.7,0,1c-0.4,0.5-0.9,0.9-1.7,0.7C251.4,240.7,251.2,240.4,250.8,240.5z"/>
	<path class="st2" d="M211,258.1c0.4-1.8,1.4-2.9,2.9-3.2c1.5-0.3,2.7,0.4,3.6,2c0.9,1.7,1.6,3.5,2.4,5.3c0.3,0.6,0.1,1.1-0.5,1.4   c-0.6,0.3-1.3,0.5-1.8-0.2c-0.2-0.3-0.3-0.6-0.4-0.9c-0.5-1.2-1-2.5-1.6-3.7c-0.6-1.4-1.5-1.8-2.4-1.4c-1,0.5-1.6,2-1.1,3.1   c0.6,1.4,1.2,2.8,1.9,4.1c0.4,0.7,0.4,1.2-0.5,1.6c-0.8,0.4-1.4,0.6-1.8-0.4c-1.1-2.5-2.3-4.9-3.4-7.4c-0.2-0.4-0.2-0.8,0.2-1   c0.6-0.4,1.1-0.6,1.8-0.2C210.5,257.4,210.7,257.7,211,258.1z"/>
	<path class="st2" d="M289,186.6c0.4,0.7,0.6,1.4,0.5,2.2c-0.2,2.1-1.8,3.3-3.8,2.9c-2.3-0.5-4.3-1.9-6.5-2.7   c-0.6-0.2-0.4-0.8-0.2-1.2c0.2-0.6,0.6-1.2,1.4-1.1c0.3,0.1,0.6,0.2,0.9,0.3c1.3,0.6,2.5,1.2,3.8,1.7c1.4,0.6,2.2,0.5,2.7-0.5   c0.5-1-0.1-2.5-1.2-3c-1.4-0.6-2.8-1.2-4.2-1.8c-0.7-0.3-1.1-0.6-0.7-1.4c0.3-0.8,0.6-1.4,1.6-1c2.5,1.1,5,2.2,7.6,3.2   c0.4,0.2,0.5,0.5,0.4,0.9c-0.1,0.6-0.4,1.2-1,1.3C289.8,186.6,289.4,186.5,289,186.6z"/>
	<path class="st2" d="M117.6,265.9c0.6-0.2,1-0.7,1.6-0.8c2.6-0.5,4.6,1.4,4,4.1c-0.4,2-1,3.9-1.5,5.9c-0.2,0.8-0.8,0.7-1.3,0.6   c-0.8-0.2-1.3-0.6-1.1-1.5c0.3-1,0.6-2.1,0.9-3.1c0.1-0.5,0.2-0.9,0.4-1.4c0.4-1.6,0.1-2.4-0.9-2.7c-1.1-0.3-2.5,0.5-2.9,1.7   c-0.4,1.4-0.8,2.8-1,4.3c-0.2,0.9-0.6,1.2-1.5,1c-0.9-0.2-1.3-0.5-1-1.6c0.7-2.5,1.3-4.9,1.9-7.4c0.1-0.5,0.1-1.1,0.9-1   c0.7,0.1,1.3,0.2,1.5,1C117.5,265.2,117.5,265.6,117.6,265.9z"/>
	<path class="st2" d="M299.4,155.6c0,0.7-0.2,1.6-0.6,2.6c-0.2,0.4-0.4,0.9-0.9,1.1c-0.6,0.3-1,0-1.4-0.3c-0.6-0.4,0-0.7,0.2-1   c0.5-0.9,0.8-1.7,0.8-2.7c0-0.5-0.1-1-0.7-1.1c-0.6-0.2-0.9,0.2-1.2,0.6c-0.4,0.7-0.8,1.5-1.2,2.2c-0.8,1.4-1.7,1.8-3,1.5   c-1.2-0.2-2-1.2-2.2-2.7c-0.1-1.4,0.1-2.8,0.8-4c0.3-0.6,0.8-0.9,1.6-0.5c0.5,0.3,0.8,0.5,0.4,1.2c-0.6,0.8-0.8,1.7-0.8,2.7   c0,0.5,0.2,0.8,0.7,0.9c0.5,0.1,0.8-0.1,1-0.5c0.3-0.6,0.6-1.2,0.9-1.8c1-1.8,2-2.5,3.4-2.1C298.7,152,299.4,153.3,299.4,155.6z"/>
	<path class="st2" d="M300.8,145.4c-0.1,1.2-0.2,2.2-0.7,3.2c-0.3,0.6-0.8,1-1.6,0.7c-0.5-0.2-0.9-0.4-0.5-1.1   c0.5-0.8,0.8-1.7,0.7-2.6c0-0.6-0.1-1.2-0.8-1.4c-0.7-0.2-1,0.4-1.3,0.8c-0.4,0.8-0.7,1.6-1.1,2.4c-0.6,1.1-1.5,1.6-2.7,1.5   c-1.2-0.2-1.9-0.8-2.2-1.9c-0.5-1.6-0.3-3.2,0.4-4.8c0.3-0.8,0.9-0.9,1.7-0.5c0.5,0.3,0.6,0.5,0.3,1c-0.4,0.7-0.7,1.5-0.7,2.3   c0,0.6,0,1.2,0.7,1.3c0.7,0.2,1-0.3,1.2-0.9c0.3-0.7,0.5-1.3,0.9-2c0.7-1.5,1.6-2,3-1.8c1.3,0.2,2.1,1,2.4,2.5   C300.7,144.6,300.7,145.1,300.8,145.4z"/>
	<path class="st2" d="M189.8,274.5c-1.3,0-2.1-0.6-2.5-2c-0.4-1.5-0.7-2.9-1.1-4.4c-0.1-0.5-0.2-1.2-1-0.8c-0.4,0.2-0.7-0.1-0.8-0.5   c-0.1-0.4-0.4-0.9,0.2-1.1c1-0.4,1.3-1.1,1.2-2.1c0-0.6,0.5-0.6,0.9-0.7c0.4-0.1,0.8,0,0.8,0.4c0.1,1.7,1.1,1.2,2,0.9   c0.7-0.3,1.1-0.2,1.3,0.7c0.2,0.8,0,1-0.7,1.1c-0.4,0.1-0.8,0.2-1.2,0.3c-0.5,0.1-0.7,0.3-0.6,0.9c0.4,1.4,0.7,2.8,1.1,4.2   c0.2,1.1,0.8,1.1,1.7,0.7c0.5-0.2,0.9-0.8,1.3,0.1c0.3,0.7,0.2,1.2-0.5,1.6C191.4,274.2,190.6,274.4,189.8,274.5z"/>
	<path class="st2" d="M251.8,229.7c-0.1-0.6-0.2-1.2,0-1.7c0.3-1,0.9-1.7,2-1.8c1.1-0.1,1.8,0.7,2.3,1.5c0.4,0.6,0,1.1-0.4,1.5   c-0.5,0.5-0.8,0.2-1.2-0.1c-0.3-0.2-0.5-0.5-1-0.3c-0.4,0.2-0.5,0.6-0.5,1c0.1,0.9,0.5,1.6,1.1,2.2c1,1,2,2,3,2.9   c0.5,0.5,0.7,0.9,0.1,1.5c-0.5,0.5-1,1.2-1.8,0.4c-2-2-4-4-6-6c-0.3-0.3-0.3-0.6,0-1c0.3-0.4,0.7-0.8,1.3-0.6   C251.1,229.2,251.4,229.5,251.8,229.7z"/>
	<path class="st2" d="M266.4,225.8c-0.7-0.1-1.2-0.3-1.6-0.7c-2.5-2.1-5-4.2-7.5-6.3c-0.6-0.5-0.5-1,0-1.5c0.5-0.6,1-0.9,1.7-0.4   c0.9,0.7,1.7,1.5,2.5,2.2c1.4,1.2,2.8,2.4,4.3,3.7c0.4,0.3,0.8,0.7,1.3,0.1c0.2-0.3,0.7-0.3,1.1,0c0.4,0.3,0.4,0.7,0.2,1.1   C267.9,224.8,267.5,225.7,266.4,225.8z"/>
	<path class="st2" d="M283,207.3c-0.1,1-0.7,1.8-1.4,2.6c-0.3,0.3-0.6,0.2-0.8-0.1c-0.4-0.3-0.7-0.8-0.4-1.2c0.8-1,0.1-1.3-0.6-1.7   c-2.4-1.4-4.7-2.8-7.1-4.2c-0.8-0.4-1-0.9-0.5-1.7c0.5-0.8,1-1,1.9-0.4c2.4,1.5,4.9,3,7.3,4.5C282.2,205.5,283,206.1,283,207.3z"/>
	<path class="st3" d="M194.5,262.8c0.7-0.1,1,0.3,1.1,0.8c0.7,2.5,1.4,5.1,2.3,7.5c0.2,0.7-0.1,1.1-0.7,1.2   c-0.6,0.2-1.4,0.6-1.7-0.4c-0.8-2.7-1.7-5.3-2.4-8C192.8,262.8,194,263,194.5,262.8z"/>
	<path class="st3" d="M184,274.9c0.1,0.9-0.5,1-1.1,1.1c-0.7,0.1-1.3,0.2-1.5-0.7c-0.4-1.9-0.7-3.7-1.1-5.6   c-0.1-0.7-0.3-1.5-0.5-2.2c-0.2-0.7,0.2-1,0.8-1.2c0.7-0.1,1.5-0.4,1.7,0.5C183,269.5,183.4,272.3,184,274.9z"/>
	<path class="st4" d="M193.2,262c-1,0-1.2-0.7-1.2-1.4c0-1,0.8-1.1,1.5-1.1c0.9-0.1,1.2,0.6,1.2,1.3   C194.8,261.8,193.9,261.8,193.2,262z"/>
	<path class="st4" d="M270.3,198.4c0.6,0.2,1.3,0.4,1.3,1.1c0,0.8-0.4,1.6-1.3,1.6c-0.7,0-1.4-0.4-1.4-1.2   C269,199.2,269.4,198.5,270.3,198.4z"/>
	<path class="st5" d="M181.8,263.9c0,1.2-0.7,1.2-1.4,1.3c-0.9,0.1-1.2-0.5-1.2-1.3c-0.1-1,0.7-1.1,1.5-1.2   C181.5,262.7,181.8,263.3,181.8,263.9z"/>
	<path class="st0" d="M108.8,173.8c-0.3-1.8-1-3.5-1.9-5.1c-0.5-1-1.1-2-1.6-3.1c-5.4-13.6-8.3-27.9-9.2-42.5   c-0.2-2.6-0.4-5.2-1.1-7.7c-1.4-4.9-4.5-8-9.6-9c-2.2-0.4-4.4-0.4-6.7-0.4c-1,0.3-2.1,0-3.1,0.3c-2,0.6-4,1.2-5.8,2.1   c-5.5,2.8-10.3,6.6-14.6,11.1c-4.4,4.5-8.1,9.5-11.3,14.8c-4.4,7.3-7.9,14.9-9.4,23.3c-0.9,4.7-1.2,9.5,0.1,14.2   c1,3.6,2.7,6.9,6,8.9c0.2,0.1,0.4,0.2,0.6,0.3c4.7,3.3,9.5,2.8,14.4,0.5c3.9-1.8,7.2-4.4,10.3-7.4c3.6-3.5,7.1-7.2,10.7-10.8   c1-1.1,2.1-2.1,3.6-2.6c0.5,0,1-0.1,1.5-0.2c1.2-0.3,2.3,0,3.2,0.9c0.5,0.5,0.9,1,1.3,1.6c1.5,2.3,2.6,4.8,3.8,7.1   c1.5,2.8,2.9,5.7,5.1,8.2c0.3,0.4,0.6,0.8,1.1,0.9c0.5,0.4,1.1,0.9,1.6,1.2c2.8,1.8,5.5,0.8,8.2-0.5   C108.2,178.8,109.3,176.5,108.8,173.8z M75.7,129.4c-0.7,4.6-2.7,8.7-5,12.6c-3.3,6-7.3,11.4-12.3,16.1c-1.8,1.6-3.6,3.1-5.8,4.2   c-0.4,0.2-0.9,0.6-1.4,0.2c-1.1-2.3-0.9-4.8-0.4-7.2c1.1-5.5,3.5-10.5,6.4-15.3c3.3-5.4,6.9-10.5,11.7-14.6c1.6-1.3,3.2-2.5,5.2-3   c0.8-0.1,1,0.6,1.3,1.2C76.2,125.5,76,127.5,75.7,129.4z"/>
	<path class="st1" d="M51.2,162.5c2.1-0.5,3.7-1.8,5.3-3.1c5.5-4.6,9.8-10.3,13.4-16.5c2-3.4,3.7-7,4.9-10.8c0.7-2.3,1-4.6,0.8-7   c-0.1-1.1-0.4-2.1-1.4-2.8c1.9-0.8,3.7-0.5,5.4,0.5c1.6,1,1.8,2.8,1.8,4.4c0,2.6-0.7,5.1-1.6,7.6c-4.1,10.5-10.3,19.5-19,26.7   c-1.5,1.3-3.2,2.4-5.2,2.8C53.5,164.9,52.2,164.3,51.2,162.5z"/>
	<path class="st2" d="M233.5,255.4c1.1-1.2,1-2.7,0.5-4.1c-0.5-1.4-1.4-2.6-2.6-3.5c-2.5-1.9-5.1-0.9-5.9,2.1   c-0.3-0.2-0.5-0.4-0.8-0.6c-0.6-0.2-1.1,0.1-1.5,0.5c-0.4,0.3-0.3,0.7,0,1.1c2.1,3,3.9,6.1,5.7,9.2c0.5,0.9,1.1,0.5,1.7,0.2   c0.6-0.4,1.1-0.7,0.5-1.5c-0.6-0.8-1.1-1.7-1.8-2.8C231,256.7,232.4,256.6,233.5,255.4z M228.8,254.5c-1.3-0.9-2-2.2-2-3.7   c0-1,0.7-1.5,1.6-1.7c0.6,0.1,1,0.3,1.4,0.6c0.8,0.6,1.4,1.5,1.7,2.4c0.3,0.8,0.4,1.6-0.3,2.3C230.5,255.2,229.6,255.1,228.8,254.5   z"/>
	<path class="st2" d="M177.3,268.8c-1.2-2-3.9-2.1-5.4-0.3c-0.1,0.2-0.3,0.4-0.5,0.7c-0.1-1.1-0.2-2-0.3-2.9c-0.1-0.9-0.8-1.1-1.6-1   c-0.7,0.1-1.1,0.3-1,1.1c0.5,3,0.9,6.1,1.4,9.1c0.2,1,0.6,1.7,1.6,2.1c2.1,0.7,5.7,0,6.6-3.1C178.6,272.5,178.4,270.5,177.3,268.8z    M175.2,274.9c-0.5,0.7-1.2,0.9-2,0.8c-0.8-0.1-1-0.8-1.2-1.5c-0.1-0.9-0.3-1.8-0.4-2.7c-0.1-1,0.7-1.9,1.6-2.1   c1-0.2,1.7,0.3,2.1,1.2c0.3,0.7,0.5,1.5,0.4,2.4C175.9,273.7,175.7,274.4,175.2,274.9z"/>
	<path class="st2" d="M238.1,240.8c-2.5,0-4.7,2.1-4.7,4.5c0,2.8,2.8,5.8,5.4,5.8c2.4,0,4.6-2.2,4.6-4.5   C243.4,243.7,240.7,240.8,238.1,240.8z M238,248.5c-1.1-0.7-1.8-1.7-2.2-2.9c-0.3-0.9-0.1-1.6,0.7-2.2c0.7-0.6,1.5-0.7,2.3-0.1   c1.2,0.9,2.1,2,2.3,3.4C241,248.4,239.3,249.4,238,248.5z"/>
	<path class="st2" d="M203.4,259.7c-2.7,0-4.7,1.9-4.7,4.5c0,3.2,2.1,5.8,4.8,5.8c2.8,0,4.7-1.8,4.7-4.6   C208.2,262.2,206.1,259.7,203.4,259.7z M204.5,267.8c-1,0.4-1.7,0.1-2.3-0.7c-0.7-0.9-1-1.9-1.2-3c-0.1-1,0.3-1.7,1.2-2.1   c1-0.4,1.8-0.2,2.5,0.6c0.7,0.9,1.1,2,1.2,2.9C205.9,266.8,205.5,267.5,204.5,267.8z"/>
	<path class="st2" d="M274.6,214.6c-1.7-1.2-3.3-2.4-5-3.5c-1.2-0.8-2.6-0.9-3.8,0c-1.4,1-2.5,2.4-2.5,4.3c0,0.7,0.6,0.9,1.1,1   c0.6,0.1,0.6-0.4,0.7-0.7c0.2-0.6,0.4-1.1,0.8-1.6c1-1.4,1.8-1.5,3.1-0.3c-0.8,0.8-1.7,1.5-2.2,2.6c-0.7,1.8-0.1,3.5,1.6,4.1   c1.6,0.6,3.4-0.2,4-1.9c0.3-0.7,0.1-1.5,0-2.3c0.4,0.1,0.7,0.2,1.1,0.3c0.6,0,0.9-0.4,1.1-0.9C275,215.2,275,214.9,274.6,214.6z    M270.6,218.1c-0.7,0.5-1.7,0.2-2-0.6c-0.3-0.8,0.7-2.7,1.5-2.9c0.6-0.1,1.3,0.8,1.3,1.9C271.4,217,271.2,217.7,270.6,218.1z"/>
	<path class="st2" d="M147.1,269.1c-1.6-0.5-3.2-0.6-4.7,0.3c-0.6,0.4-0.5,1.1-0.2,1.6c0.3,0.6,0.7,0.2,1.1,0.1   c0.8-0.2,1.6-0.3,2.4-0.1c0.9,0.2,1.3,0.8,1.4,1.7c0,0.6-0.1,0.8-0.8,0.6c-1.1-0.3-2.2-0.5-3.3-0.1c-1.5,0.5-2.2,1.6-2.1,3.3   c0.1,1.4,1.1,2.3,2.6,2.5c1.3,0.2,2.3-0.4,3.3-1.3c0.1,0.4,0.1,0.7,0.2,1c0.3,0.6,0.9,0.6,1.5,0.5c0.4,0,0.7-0.2,0.7-0.7   c0.1-2.1,0.2-4.3,0.2-6.4C149.3,270.6,148.4,269.5,147.1,269.1z M144.7,277.1c-0.9,0-1.5-0.3-1.5-1.3c0-0.8,0.7-1.4,2-1.4   c0.5,0.3,1.6-0.4,1.7,0.9C146.9,276.2,145.8,277.1,144.7,277.1z"/>
	<path class="st2" d="M297.2,162.8c-0.2-0.7-0.8-0.9-1.4-0.7c-0.8,0.1-0.4,0.7-0.4,1.1c0.1,0.4,0.1,0.8,0.1,1.2   c-0.1,1.7-1.1,2.7-2.5,2.8c-0.7,0-0.9-0.1-0.7-0.9c0.4-1.2,0.6-2.5,0.9-3.7c0.3-1.3,0-1.7-1.2-2.1c-3-0.8-5.5,1.9-4.8,5.1   c0.5,2.4,3.4,4.2,6.1,3.8c2.6-0.3,4.2-2.2,4.2-5.3C297.4,163.8,297.4,163.3,297.2,162.8z M291.5,163.5c-0.2,0.8-0.5,1.5-0.6,2.3   c-0.1,0.9-0.5,0.8-1.1,0.4c-0.5-0.4-0.9-0.9-0.8-1.6c0-1.3,0.9-2.2,2-2C291.6,162.7,291.7,163,291.5,163.5z"/>
	<path class="st2" d="M285.7,195.6c-0.1-0.7-0.5-0.9-1.2-1c-0.7,0-0.6,0.5-0.6,0.9c-0.1,0.8-0.2,1.7-0.7,2.4c-0.7,0.9-1.5,1.2-2.6,1   c-0.6-0.1-0.8-0.3-0.5-1c0.7-1.2,1.2-2.4,1.9-3.6c0.6-1,0.2-1.6-0.6-2c-1.2-0.7-2.5-0.9-3.8-0.2c-1.5,0.9-2.2,2.3-2.3,3.6   c0,2.8,2.1,5,4.9,5.5C283.3,201.7,286.2,198.8,285.7,195.6z M278.8,197.3c-0.1,0.2-0.2,0.6-0.6,0.3c-0.7-0.5-1.1-1.3-0.9-2.1   c0.2-0.9,0.7-1.6,1.6-1.6c1.2,0.1,1.4,0.5,1,1.3C279.5,195.9,279.1,196.6,278.8,197.3z"/>
	<path class="st2" d="M301,132.4c-0.3-0.8-0.9-1.3-1.7-0.9c-1,0.4-0.2,1-0.1,1.5c0.6,1.9,0.1,3.4-1.3,4c-1.1,0.4-1.2,0.3-1.2-0.8   c0-0.6,0-1.2,0-1.8c0,0,0.1,0,0.1,0c0-0.7,0-1.4,0-2c0.1-1-0.4-1.3-1.3-1.5c-2.9-0.5-5.1,2.2-4.2,5.3c0.8,2.8,4.1,4.2,7.3,3   C301.1,138.2,302.2,135.2,301,132.4z M295.3,135c0,0.2,0,0.5,0,0.9c0,0.3,0.2,0.8-0.2,1c-0.4,0.2-0.8-0.1-1.2-0.3   c-0.7-0.5-0.9-1.2-0.8-2c0.1-0.6,0.3-1.1,0.9-1.4c0.9-0.4,1.3-0.1,1.3,0.8C295.3,134.3,295.3,134.6,295.3,135z"/>
	<path class="st2" d="M132.6,268c-2.2-1.8-5.7-1.1-7,1.5c-0.5,1-0.7,2-0.7,3.1c-0.1,3.5,3.5,5.9,6.8,4.4c0.2-0.1,0.5-0.2,0.6-0.4   c0.3-0.4,0.3-0.9,0.1-1.4c-0.3-0.6-0.7-0.1-1,0c-2.1,0.5-3.6-0.1-4.1-1.8c-0.2-0.9-0.1-1.3,0.9-1.1c1.3,0.3,2.6,0.5,3.9,0.7   c0.6,0.1,1.1,0,1.4-0.6C134.2,271,133.8,269,132.6,268z M131.4,271.2c-0.3,0.5-0.7,0.1-1.1,0.1c-0.6-0.1-1.2-0.2-1.9-0.3   c-1-0.2-1.1-0.5-0.5-1.2c0.4-0.5,1-0.8,1.6-0.7c0.8,0,1.4,0.2,1.8,0.9C131.6,270.3,131.7,270.8,131.4,271.2z"/>
</g>
</svg>