<?xml version="1.0" encoding="UTF-8" standalone="no"?>
<!-- Created with Inkscape (http://www.inkscape.org/) -->

<svg
   width="91.271378mm"
   height="91.271378mm"
   viewBox="0 0 91.271377 91.271378"
   version="1.1"
   id="svg1"
   xml:space="preserve"
   inkscape:export-filename="Logo_experis.png"
   inkscape:export-xdpi="96"
   inkscape:export-ydpi="96"
   inkscape:version="1.4.2 (f4327f4, 2025-05-13)"
   sodipodi:docname="Logo-helpline.svg"
   xmlns:inkscape="http://www.inkscape.org/namespaces/inkscape"
   xmlns:sodipodi="http://sodipodi.sourceforge.net/DTD/sodipodi-0.dtd"
   xmlns="http://www.w3.org/2000/svg"
   xmlns:svg="http://www.w3.org/2000/svg"><sodipodi:namedview
     id="namedview1"
     pagecolor="#505050"
     bordercolor="#eeeeee"
     borderopacity="1"
     inkscape:showpageshadow="0"
     inkscape:pageopacity="0"
     inkscape:pagecheckerboard="0"
     inkscape:deskcolor="#505050"
     inkscape:document-units="mm"
     showgrid="false"
     inkscape:zoom="0.71891835"
     inkscape:cx="365.13187"
     inkscape:cy="500.05679"
     inkscape:window-width="1920"
     inkscape:window-height="1009"
     inkscape:window-x="-8"
     inkscape:window-y="-8"
     inkscape:window-maximized="1"
     inkscape:current-layer="svg1" /><defs
     id="defs1" /><rect
     style="opacity:1;fill:#ffffff;fill-opacity:1;stroke-width:34.7664"
     id="rect30"
     width="91.271378"
     height="91.271378"
     x="0"
     y="0" /><g
     inkscape:label="Calque 1"
     inkscape:groupmode="layer"
     id="layer1"
     transform="translate(120.30018,-16.274828)"><g
       id="g1"
       transform="matrix(0.26458333,0,0,0.26458333,-117.72397,53.445833)"
       style="display:inline"><path
         d="M 60,30 C 60,22.756 54.04,16.349 49.684,11.673 L 48.326,10.316 C 43.65,5.964 37.247,0 30,0 22.753,0 16.346,5.964 11.673,10.315 l -1.362,1.357 C 5.96,16.353 0,22.764 0,30 0,37.236 5.96,43.649 10.312,48.325 l 1.276,1.282 C 11.588,49.607 22.761,60 30,60 37.239,60 43.647,54.038 48.326,49.687 l 1.358,-1.362 C 54.037,43.653 60,37.254 60,30 Z"
         fill="#fefefe"
         fill-rule="evenodd"
         id="path1" /><path
         d="m 22.669,24.983 c 0,0 -5.66,-5.548 -5.66,-5.548 -0.325,-0.324 -0.59,-0.216 -0.59,0.239 v 6.555 a 0.833,0.833 0 0 1 -0.84,0.821 h -2 a 0.833,0.833 0 0 1 -0.84,-0.821 V 14 C 8.546,18.4 3,24.281 3,30.766 3,37.251 8.546,43.13 12.735,47.529 v -12.32 a 0.836,0.836 0 0 1 0.84,-0.825 h 2 a 0.842,0.842 0 0 1 0.84,0.825 v 6.555 c 0,0.453 0.265,0.56 0.59,0.239 l 5.246,-5.123 a 8.126,8.126 0 0 0 0.414,-11.9 z"
         transform="translate(-0.353,-1.647)"
         fill="#112b77"
         fill-rule="evenodd"
         id="path2" /><path
         d="m 37.546,21.666 c 0,0 5.55,-5.658 5.55,-5.658 0.32,-0.325 0.214,-0.594 -0.243,-0.594 H 36.3 a 0.831,0.831 0 0 1 -0.821,-0.838 v -2 A 0.83,0.83 0 0 1 36.3,11.736 H 48.529 C 44.126,7.54 38.246,2 31.764,2 25.282,2 19.4,7.54 15,11.735 h 12.32 a 0.835,0.835 0 0 1 0.825,0.84 v 2 a 0.836,0.836 0 0 1 -0.825,0.84 h -6.557 c -0.451,0 -0.56,0.269 -0.239,0.594 l 5.125,5.242 a 8.12,8.12 0 0 0 11.9,0.416 z"
         transform="translate(-1.765,-0.235)"
         fill="#28aab8"
         fill-rule="evenodd"
         id="path3" /><path
         d="m 40,30.794 a 8.146,8.146 0 0 0 2.392,5.756 c -0.008,0 -0.01,0.008 -0.014,0.01 l 5.67,5.54 c 0.327,0.32 0.6,0.21 0.6,-0.245 L 48.637,35.3 a 0.84,0.84 0 0 1 0.842,-0.819 h 2 a 0.834,0.834 0 0 1 0.84,0.819 V 47.529 C 56.513,43.129 62.055,37.25 62.055,30.763 62.055,24.276 56.517,18.4 52.323,14 v 12.322 a 0.834,0.834 0 0 1 -0.84,0.825 h -2 a 0.833,0.833 0 0 1 -0.838,-0.825 v -6.555 c 0,-0.451 -0.271,-0.56 -0.6,-0.241 L 42.8,24.651 A 8.18,8.18 0 0 0 40,30.794"
         transform="translate(-4.706,-1.647)"
         fill="#5eb17b"
         fill-rule="evenodd"
         id="path4" /><path
         d="m 25.981,42.392 c 0,0 -5.548,5.657 -5.548,5.657 -0.324,0.327 -0.218,0.6 0.241,0.6 h 6.553 a 0.835,0.835 0 0 1 0.821,0.844 v 2 a 0.831,0.831 0 0 1 -0.821,0.838 H 15 c 4.4,4.192 10.279,9.735 16.768,9.735 6.489,0 12.362,-5.543 16.762,-9.735 H 36.207 A 0.835,0.835 0 0 1 35.38,51.493 v -2 a 0.837,0.837 0 0 1 0.827,-0.842 h 6.553 c 0.453,0 0.562,-0.269 0.243,-0.6 L 37.88,42.808 a 8.123,8.123 0 0 0 -11.9,-0.416 z"
         transform="translate(-1.765,-4.706)"
         fill="#bbce04"
         fill-rule="evenodd"
         id="path5" /><path
         d="m 108.03,50.176 h 4.735 V 14 H 108.03 Z M 104.264,33.555 H 85.733 V 50.176 H 81 V 14 h 4.733 v 15.613 h 14.434 a 3.911,3.911 0 0 1 4.1,3.943 z"
         transform="translate(-9.529,-1.647)"
         fill="#112b77"
         fill-rule="evenodd"
         id="path6" /><path
         d="m 186.824,50.014 c -3.433,0.128 -6.757,0.162 -9.754,0.162 -7.252,0 -14.07,-0.365 -14.07,-9.4 V 14 h 4.722 v 24.147 c 0,6.693 1.286,8.1 9.185,8.1 h 9.917 z"
         transform="translate(-19.176,-1.647)"
         fill="#112b77"
         fill-rule="evenodd"
         id="path7" /><path
         d="m 203.914,33.761 c 1.794,0.106 3.342,0.112 4.9,0.112 7.485,0 11.7,-3.365 11.7,-8.236 0,-5.087 -3.651,-7.432 -11.693,-7.432 -2.357,0 -6.09,-0.051 -8.206,0 l 0.014,31.971 H 196 V 14 h 12.8 c 8.963,0 16.322,2.544 16.322,11.637 0,9.093 -6.538,12.086 -15.822,12.086 -0.559,0 -1.974,-0.026 -1.974,-0.026 -3.837,-0.175 -3.412,-3.935 -3.412,-3.935"
         transform="translate(-23.059,-1.647)"
         fill="#112b77"
         fill-rule="evenodd"
         id="path8" /><path
         d="m 260.824,50.014 c -3.435,0.128 -6.76,0.162 -9.755,0.162 -7.258,0 -14.069,-0.365 -14.069,-9.4 V 14 h 4.721 v 24.147 c 0,6.693 1.284,8.1 9.184,8.1 h 9.918 z"
         transform="translate(-27.882,-1.647)"
         fill="#112b77"
         fill-rule="evenodd"
         id="path9" /><path
         d="M 274.412,18.71 V 50.176 H 270 V 14 a 4.524,4.524 0 0 1 4.412,4.71"
         transform="translate(-31.765,-1.647)"
         fill="#112b77"
         fill-rule="evenodd"
         id="path10" /><path
         d="M 311.526,44.126 V 13.452 h 4.239 v 34.057 c 0,2.4 -1.15,3.433 -2.838,3.433 -1.688,0 -2.613,-1.146 -4.093,-3.153 L 288.239,19.775 V 50.491 H 284 V 16.439 c 0,-2.424 1.17,-3.439 2.84,-3.439 1.616,0 2.734,1.3 4.073,3.134 z"
         transform="translate(-33.412,-1.529)"
         fill="#112b77"
         fill-rule="evenodd"
         id="path11" /><path
         d="m 150.706,17.915 h -10.772 c -7.905,0 -9.194,1.406 -9.194,8.13 v 12.137 c 0,6.71 1.289,8.079 9.194,8.079 h 10.772 v 3.715 c -3.413,0.144 -7.3,0.2 -10.584,0.2 -7.265,0 -14.122,-0.364 -14.122,-9.37 V 23.4 c 0,-9.006 6.857,-9.4 14.122,-9.4 2.746,0 7.06,0.105 10.584,0.253 z"
         transform="translate(-14.824,-1.647)"
         fill="#112b77"
         fill-rule="evenodd"
         id="path12" /><path
         d="m 151,36.412 h -15 c 0,0 0,-4.412 3.869,-4.412 H 151 Z"
         transform="translate(-16,-3.765)"
         fill="#112b77"
         fill-rule="evenodd"
         id="path13" /><path
         d="m 354.706,17.915 h -10.767 c -7.912,0 -9.2,1.406 -9.2,8.13 v 12.137 c 0,6.71 1.289,8.079 9.2,8.079 h 10.767 v 3.715 c -3.41,0.144 -7.3,0.2 -10.585,0.2 -7.263,0 -14.121,-0.364 -14.121,-9.37 V 23.4 c 0,-9.006 6.858,-9.4 14.121,-9.4 2.749,0 7.063,0.105 10.585,0.253 z"
         transform="translate(-38.824,-1.647)"
         fill="#112b77"
         fill-rule="evenodd"
         id="path14" /><path
         d="m 353,36.412 h -15 c 0,0 0,-4.412 3.867,-4.412 H 353 Z"
         transform="translate(-39.765,-3.765)"
         fill="#112b77"
         fill-rule="evenodd"
         id="path15" /></g></g></svg>
