<svg xmlns="http://www.w3.org/2000/svg" width="315.882" height="60" viewBox="0 0 315.882 60"><path d="M60,30c0-7.244-5.96-13.651-10.316-18.327l-1.358-1.357C43.65,5.964,37.247,0,30,0S16.346,5.964,11.673,10.315l-1.362,1.357C5.96,16.353,0,22.764,0,30S5.96,43.649,10.312,48.325l1.276,1.282S22.761,60,30,60s13.647-5.962,18.326-10.313l1.358-1.362C54.037,43.653,60,37.254,60,30Z" fill="#fefefe" fill-rule="evenodd"/><path d="M22.669,24.983s-5.66-5.548-5.66-5.548c-.325-.324-.59-.216-.59.239v6.555a.833.833,0,0,1-.84.821h-2a.833.833,0,0,1-.84-.821V14C8.546,18.4,3,24.281,3,30.766S8.546,43.13,12.735,47.529V35.209a.836.836,0,0,1,.84-.825h2a.842.842,0,0,1,.84.825v6.555c0,.453.265.56.59.239l5.246-5.123a8.126,8.126,0,0,0,.414-11.9Z" transform="translate(-0.353 -1.647)" fill="#112b77" fill-rule="evenodd"/><path d="M37.546,21.666s5.55-5.658,5.55-5.658c.32-.325.214-.594-.243-.594H36.3a.831.831,0,0,1-.821-.838v-2a.83.83,0,0,1,.821-.84H48.529C44.126,7.54,38.246,2,31.764,2S19.4,7.54,15,11.735H27.32a.835.835,0,0,1,.825.84v2a.836.836,0,0,1-.825.84H20.763c-.451,0-.56.269-.239.594l5.125,5.242a8.12,8.12,0,0,0,11.9.416Z" transform="translate(-1.765 -0.235)" fill="#28aab8" fill-rule="evenodd"/><path d="M40,30.794a8.146,8.146,0,0,0,2.392,5.756c-.008,0-.01.008-.014.01l5.67,5.54c.327.32.6.21.6-.245L48.637,35.3a.84.84,0,0,1,.842-.819h2a.834.834,0,0,1,.84.819V47.529c4.194-4.4,9.736-10.279,9.736-16.766S56.517,18.4,52.323,14V26.322a.834.834,0,0,1-.84.825h-2a.833.833,0,0,1-.838-.825V19.767c0-.451-.271-.56-.6-.241L42.8,24.651A8.18,8.18,0,0,0,40,30.794" transform="translate(-4.706 -1.647)" fill="#5eb17b" fill-rule="evenodd"/><path d="M25.981,42.392s-5.548,5.657-5.548,5.657c-.324.327-.218.6.241.6l6.553,0a.835.835,0,0,1,.821.844v2a.831.831,0,0,1-.821.838H15c4.4,4.192,10.279,9.735,16.768,9.735s12.362-5.543,16.762-9.735H36.207a.835.835,0,0,1-.827-.838v-2a.837.837,0,0,1,.827-.842h6.553c.453,0,.562-.269.243-.6L37.88,42.808a8.123,8.123,0,0,0-11.9-.416Z" transform="translate(-1.765 -4.706)" fill="#bbce04" fill-rule="evenodd"/><path d="M108.03,50.176h4.735V14H108.03Zm-3.766-16.621H85.733V50.176H81V14h4.733V29.613h14.434a3.911,3.911,0,0,1,4.1,3.943Z" transform="translate(-9.529 -1.647)" fill="#112b77" fill-rule="evenodd"/><path d="M186.824,50.014c-3.433.128-6.757.162-9.754.162-7.252,0-14.07-.365-14.07-9.4V14h4.722V38.147c0,6.693,1.286,8.1,9.185,8.1h9.917Z" transform="translate(-19.176 -1.647)" fill="#112b77" fill-rule="evenodd"/><path d="M203.914,33.761c1.794.106,3.342.112,4.9.112,7.485,0,11.7-3.365,11.7-8.236,0-5.087-3.651-7.432-11.693-7.432-2.357,0-6.09-.051-8.206,0l.014,31.971H196V14h12.8c8.963,0,16.322,2.544,16.322,11.637S218.584,37.723,209.3,37.723c-.559,0-1.974-.026-1.974-.026-3.837-.175-3.412-3.935-3.412-3.935" transform="translate(-23.059 -1.647)" fill="#112b77" fill-rule="evenodd"/><path d="M260.824,50.014c-3.435.128-6.76.162-9.755.162-7.258,0-14.069-.365-14.069-9.4V14h4.721V38.147c0,6.693,1.284,8.1,9.184,8.1h9.918Z" transform="translate(-27.882 -1.647)" fill="#112b77" fill-rule="evenodd"/><path d="M274.412,18.71V50.176H270V14a4.524,4.524,0,0,1,4.412,4.71" transform="translate(-31.765 -1.647)" fill="#112b77" fill-rule="evenodd"/><path d="M311.526,44.126V13.452h4.239V47.509c0,2.4-1.15,3.433-2.838,3.433s-2.613-1.146-4.093-3.153L288.239,19.775V50.491H284V16.439c0-2.424,1.17-3.439,2.84-3.439,1.616,0,2.734,1.3,4.073,3.134Z" transform="translate(-33.412 -1.529)" fill="#112b77" fill-rule="evenodd"/><path d="M150.706,17.915H139.934c-7.905,0-9.194,1.406-9.194,8.13V38.182c0,6.71,1.289,8.079,9.194,8.079h10.772v3.715c-3.413.144-7.3.2-10.584.2-7.265,0-14.122-.364-14.122-9.37V23.4c0-9.006,6.857-9.4,14.122-9.4,2.746,0,7.06.105,10.584.253Z" transform="translate(-14.824 -1.647)" fill="#112b77" fill-rule="evenodd"/><path d="M151,36.412H136S136,32,139.869,32H151Z" transform="translate(-16 -3.765)" fill="#112b77" fill-rule="evenodd"/><path d="M354.706,17.915H343.939c-7.912,0-9.2,1.406-9.2,8.13V38.182c0,6.71,1.289,8.079,9.2,8.079h10.767v3.715c-3.41.144-7.3.2-10.585.2-7.263,0-14.121-.364-14.121-9.37V23.4c0-9.006,6.858-9.4,14.121-9.4,2.749,0,7.063.105,10.585.253Z" transform="translate(-38.824 -1.647)" fill="#112b77" fill-rule="evenodd"/><path d="M353,36.412H338S338,32,341.867,32H353Z" transform="translate(-39.765 -3.765)" fill="#112b77" fill-rule="evenodd"/></svg>