<?xml version="1.0" encoding="UTF-8" standalone="no"?>
<!-- Created with Inkscape (http://www.inkscape.org/) -->

<svg
   width="24.303596mm"
   height="24.303595mm"
   viewBox="0 0 24.303596 24.303595"
   version="1.1"
   id="svg1"
   xml:space="preserve"
   inkscape:version="1.4.2 (f4327f4, 2025-05-13)"
   sodipodi:docname="qrc_cwc.svg"
   inkscape:export-filename="..\qrc\qrc_cwc1.png"
   inkscape:export-xdpi="96"
   inkscape:export-ydpi="96"
   xmlns:inkscape="http://www.inkscape.org/namespaces/inkscape"
   xmlns:sodipodi="http://sodipodi.sourceforge.net/DTD/sodipodi-0.dtd"
   xmlns:xlink="http://www.w3.org/1999/xlink"
   xmlns="http://www.w3.org/2000/svg"
   xmlns:svg="http://www.w3.org/2000/svg"
   xmlns:rdf="http://www.w3.org/1999/02/22-rdf-syntax-ns#"
   xmlns:cc="http://creativecommons.org/ns#"
   xmlns:dc="http://purl.org/dc/elements/1.1/"><title
     id="title1">cdv-face-avant-arriere</title><sodipodi:namedview
     id="namedview1"
     pagecolor="#505050"
     bordercolor="#eeeeee"
     borderopacity="1"
     inkscape:showpageshadow="0"
     inkscape:pageopacity="0"
     inkscape:pagecheckerboard="0"
     inkscape:deskcolor="#505050"
     inkscape:document-units="mm"
     inkscape:zoom="1.4378367"
     inkscape:cx="-163.78772"
     inkscape:cy="62.24629"
     inkscape:window-width="1920"
     inkscape:window-height="1009"
     inkscape:window-x="1912"
     inkscape:window-y="-8"
     inkscape:window-maximized="1"
     inkscape:current-layer="layer1"
     showgrid="true" /><defs
     id="defs1"><color-profile
       name="DELL-P2222H-Color-Profile-D6500"
       xlink:href="../../../../../../../../WINDOWS/system32/spool/drivers/color/P2222H.icm"
       id="color-profile1" /><linearGradient
       id="swatch6"
       inkscape:swatch="solid"><stop
         style="stop-color:#cccccc;stop-opacity:1;"
         offset="0"
         id="stop6" /></linearGradient><linearGradient
       id="linearGradient45"><stop
         style="stop-color:#31ac93;stop-opacity:1;"
         offset="0"
         id="stop48" /><stop
         style="stop-color:#93ac93;stop-opacity:0;"
         offset="1"
         id="stop49" /></linearGradient><linearGradient
       id="linearGradient45-1"><stop
         style="stop-color:#31bf93;stop-opacity:1;"
         offset="0"
         id="stop46" /><stop
         style="stop-color:#93ac93;stop-opacity:0;"
         offset="1"
         id="stop47" /></linearGradient><linearGradient
       id="swatch43-1"><stop
         style="stop-color:#93ac93;stop-opacity:1;"
         offset="0"
         id="stop45" /></linearGradient><inkscape:perspective
       sodipodi:type="inkscape:persp3d"
       inkscape:vp_x="0 : -373.237 : 1"
       inkscape:vp_y="0 : 1000 : 0"
       inkscape:vp_z="210 : -373.237 : 1"
       inkscape:persp3d-origin="105.00001 : -422.737 : 1"
       id="perspective1" /><inkscape:perspective
       sodipodi:type="inkscape:persp3d"
       inkscape:vp_x="0 : -373.237 : 1"
       inkscape:vp_y="0 : 1000 : 0"
       inkscape:vp_z="210 : -373.237 : 1"
       inkscape:persp3d-origin="105.00001 : -422.737 : 1"
       id="perspective1-5" /></defs><path
     style="display:inline;fill:#ffb42c;fill-opacity:1"
     d="m 371.00854,220.00104 h -13.89062 v -13.89063 -13.89062 h 13.89062 13.89063 v 13.89062 13.89063 z m 0,-3.96875 h 9.92188 v -9.92188 -9.92187 h -9.92188 -9.92187 v 9.92187 9.92188 z m 0,-3.96875 h -5.95312 v -5.95313 -5.95312 h 5.95312 5.95313 v 5.95312 5.95313 z m 45.64063,7.9375 h -3.96875 v -1.98438 -1.98437 h -3.96875 -3.96875 v -3.96875 -3.96875 h -1.98438 -1.98437 v 3.96875 3.96875 h -1.98438 -1.98437 v -1.98438 -1.98437 h -1.98438 -1.98437 v -3.96875 -3.96875 h 1.98437 1.98438 v -1.98438 -1.98437 h 1.98437 1.98438 v -1.98438 -1.98437 h -1.98438 -1.98437 v -1.98438 -1.98437 h 1.98437 1.98438 v -1.98438 -1.98437 h -1.98438 -1.98437 v -1.98438 -1.98437 h -1.98438 -1.98437 v 3.96875 3.96875 h -1.98438 -1.98437 v -1.98438 -1.98437 h -3.96875 -3.96875 v -1.98438 -1.98437 h 1.98437 1.98438 v -1.98438 -1.98437 h -1.98438 -1.98437 v -1.98438 -1.98437 h -1.98438 -1.98437 v -1.98438 -1.98437 h 1.98437 1.98438 v -1.98438 -1.98437 h -3.96875 -3.96875 v 1.98437 1.98438 h -1.98438 -1.98437 v 3.96875 3.96875 h 3.96875 3.96875 v 3.96875 3.96875 h -3.96875 -3.96875 v -3.96875 -3.96875 h -1.98438 -1.98437 v -1.98438 -1.98437 h -1.98438 -1.98437 v 5.95312 5.95313 h -1.98438 -1.98437 v -7.9375 -7.9375 h 3.96875 3.96875 v -1.98438 -1.98437 h -1.98438 -1.98437 v -3.96875 -3.96875 h -1.98438 -1.98437 v -1.98438 -1.98437 h 1.98437 1.98438 v -1.98438 -1.98437 h -1.98438 -1.98437 v -5.95313 -5.95312 h 3.96875 3.96875 v 1.98437 1.98438 h -1.98438 -1.98437 v 1.98437 1.98438 h 3.96875 3.96875 v -1.98438 -1.98437 h 1.98437 1.98438 v -1.98438 -1.98437 h 3.96875 3.96875 v -1.98438 -1.98437 h -1.98438 -1.98437 v -3.96875 -3.96875 h -1.98438 -1.98437 v 3.96875 3.96875 h -1.98438 -1.98437 v -1.98438 -1.98437 h -1.98438 -1.98437 v 1.98437 1.98438 h -3.96875 -3.96875 v -3.96875 -3.96875 h 5.95312 5.95313 v -1.98438 -1.98437 h -1.98438 -1.98437 v -1.98438 -1.98437 h -3.96875 -3.96875 v -1.98438 -1.98437 h 3.96875 3.96875 v 1.98437 1.98438 h 1.98437 1.98438 v 1.98437 1.98438 h 3.96875 3.96875 v -1.98438 -1.98437 h -1.98438 -1.98437 v -1.98438 -1.98437 h -1.98438 -1.98437 v -1.98438 -1.98437 h -3.96875 -3.96875 v -1.98438 -1.98437 h 3.96875 3.96875 v 1.98437 1.98438 h 7.9375 7.9375 v -1.98438 -1.98437 h -3.96875 -3.96875 v -1.98438 -1.98437 h 3.96875 3.96875 v 1.98437 1.98438 h 5.95312 5.95313 v 1.98437 1.98438 h 5.95312 5.95313 v -1.98438 -1.98437 h 1.98437 1.98438 v -1.98438 -1.98437 h -3.96875 -3.96875 v -3.96875 -3.96875 h -1.98438 -1.98437 v 1.984375 1.984375 h -1.98438 -1.98437 v 1.98437 1.98438 h -3.96875 -3.96875 v -3.96875 -3.96875 h 1.98437 1.98438 V 94.985415 93.00104 h -1.98438 -1.98437 V 91.016665 89.03229 h 1.98437 1.98438 v 1.984375 1.984375 h 1.98437 1.98438 v 1.984375 1.984375 h 1.98437 1.98438 v -3.96875 -3.96875 h -1.98438 -1.98437 v -3.96875 -3.96875 h -1.98438 -1.98437 v 1.984375 1.984375 h -1.98438 -1.98437 V 83.079165 81.09479 h 1.98437 1.98438 V 79.110415 77.12604 h -1.98438 -1.98437 V 75.141665 73.15729 h 5.95312 5.95313 v 1.984375 1.984375 h 1.98437 1.98438 V 75.141665 73.15729 h 5.95312 5.95313 v 1.984375 1.984375 h -3.96875 -3.96875 v 1.984375 1.984375 h 3.96875 3.96875 v 3.96875 3.96875 h 3.96875 3.96875 v 1.984375 1.984375 h -1.98438 -1.98437 v 1.984375 1.984375 h 1.98437 1.98438 v 1.984375 1.984375 h 1.98437 1.98438 v -3.96875 -3.96875 h 3.96875 3.96875 V 87.047915 81.09479 h -1.98438 -1.98437 V 79.110415 77.12604 h 1.98437 1.98438 V 75.141665 73.15729 h 1.98437 1.98438 v 3.96875 3.96875 h 1.98437 1.98438 v -3.96875 -3.96875 h 3.96875 3.96875 v 3.96875 3.96875 h 1.98437 1.98438 v 1.984375 1.984375 h 1.98437 1.98438 v -3.96875 -3.96875 h -1.98438 -1.98437 V 75.141665 73.15729 h 3.96875 3.96875 v 5.953125 5.953125 h -1.98438 -1.98437 v 1.984375 1.984375 h -3.96875 -3.96875 v 1.984375 1.984375 h 1.98437 1.98438 v 5.953125 5.953125 h 1.98437 1.98438 v 1.98437 1.98438 h 3.96875 3.96875 v -1.98438 -1.98437 h -1.98438 -1.98437 v -1.98438 -1.98437 h -1.98438 -1.98437 v -3.96875 -3.96875 h 1.98437 1.98438 v 3.96875 3.96875 h 1.98437 1.98438 v -3.96875 -3.96875 h 1.98437 1.98438 v 7.9375 7.9375 h 1.98437 1.98438 v -1.98438 -1.98437 h 1.98437 1.98438 v 1.98437 1.98438 h 1.98437 1.98438 v -1.98438 -1.98437 h 1.98437 1.98438 v 1.98437 1.98438 h 1.98437 1.98438 v -1.98438 -1.98437 h 1.98437 1.98438 v 3.96875 3.96875 h 3.57187 3.57188 v -1.98438 -1.98437 h -1.5875 -1.5875 v -1.98438 -1.98437 h 1.5875 1.5875 v -1.98438 -1.98437 H 489.67417 476.18042 V 87.047915 73.15729 h 13.89062 13.89063 v 73.42187 73.42188 h -1.98438 -1.98437 v -5.95313 -5.95312 h 1.5875 1.5875 v -1.98438 -1.98437 h -1.5875 -1.5875 v -1.98438 -1.98437 h -1.98438 -1.98437 v 3.96875 3.96875 h -1.98438 -1.98437 v 5.95312 5.95313 h -1.98438 -1.98437 v -1.98438 -1.98437 h -1.98438 -1.98437 v -1.98438 -1.98437 h -1.98438 -1.98437 v 1.98437 1.98438 h -1.98438 -1.98437 v -1.98438 -1.98437 h -1.98438 -1.98437 v 3.96875 3.96875 h -3.96875 -3.96875 v -1.98438 -1.98437 h 1.98437 1.98438 v -3.96875 -3.96875 h -1.98438 -1.98437 v 1.98437 1.98438 h -1.98438 -1.98437 v -3.96875 -3.96875 h -5.95313 -5.95312 v -1.98438 -1.98437 h 1.98437 1.98438 v -1.98438 -1.98437 h -3.96875 -3.96875 v -3.96875 -3.96875 h -1.98438 -1.98437 v 3.96875 3.96875 h -1.98438 -1.98437 v 1.98437 1.98438 h -1.98438 -1.98437 v 1.98437 1.98438 h -1.98438 -1.98437 v -1.98438 -1.98437 h -1.98438 -1.98437 v -3.96875 -3.96875 h -1.98438 -1.98437 v -1.98438 -1.98437 h 1.98437 1.98438 v 1.98437 1.98438 h 1.98437 1.98438 v -3.96875 -3.96875 h -1.98438 -1.98437 v -1.98438 -1.98437 h -1.98438 -1.98437 v -5.95313 -5.95312 h -1.98438 -1.98437 v 1.98437 1.98438 h -3.96875 -3.96875 v -1.98438 -1.98437 h 1.98437 1.98438 v -1.98438 -1.98437 h -1.98438 -1.98437 v -1.98438 -1.98437 h -1.98438 -1.98437 v 1.98437 1.98438 h -1.98438 -1.98437 v -1.98438 -1.98437 h -1.98438 -1.98437 v 1.98437 1.98438 h -3.96875 -3.96875 v -1.98438 -1.98437 h -1.98438 -1.98437 v 1.98437 1.98438 h -1.98438 -1.98437 v 1.98437 1.98438 h 1.98437 1.98438 v 1.98437 1.98438 h -1.98438 -1.98437 v 1.98437 1.98438 h 3.96875 3.96875 v 1.98437 1.98438 h 1.98437 1.98438 v -1.98438 -1.98437 h 1.98437 1.98438 v -1.98438 -1.98437 h 3.96875 3.96875 v 1.98437 1.98438 h 3.96875 3.96875 v 1.98437 1.98438 h 1.98437 1.98438 v 1.98437 1.98438 h -1.98438 -1.98437 v 1.98437 1.98438 h -1.98438 -1.98437 v 1.98437 1.98438 h 3.96875 3.96875 v 1.98437 1.98438 h -1.98438 -1.98437 v 1.98437 1.98438 h 3.96875 3.96875 v 1.98437 1.98438 h -3.96875 -3.96875 v -1.98438 -1.98437 h -1.98438 -1.98437 v 3.96875 3.96875 h 1.98437 1.98438 v 1.98437 1.98438 h 3.96875 3.96875 v 3.96875 3.96875 z m 61.51562,-7.9375 h 1.98438 v -1.98438 -1.98437 h 1.98437 1.98438 v 1.98437 1.98438 h 1.98437 1.98438 v -3.96875 -3.96875 h 1.98437 1.98438 v -1.98438 -1.98437 h 1.98437 1.98438 v -1.98438 -1.98437 h 1.98437 1.98438 v 1.98437 1.98438 h 1.5875 1.5875 v -1.98438 -1.98437 h -1.5875 -1.5875 v -1.98438 -1.98437 h 1.5875 1.5875 v -3.96875 -3.96875 h -1.5875 -1.5875 v -1.98438 -1.98437 h -1.98438 -1.98437 v -7.9375 -7.9375 h -3.96875 -3.96875 v -1.98438 -1.98437 h 1.98437 1.98438 v -1.98438 -1.98437 h -1.98438 -1.98437 v 1.98437 1.98438 h -3.96875 -3.96875 v -1.98438 -1.98437 h -1.98438 -1.98437 v -1.98438 -1.98437 h 1.98437 1.98438 v -1.98438 -1.98437 h 1.98437 1.98438 v 1.98437 1.98438 h 1.98437 1.98438 v -1.98438 -1.98437 h 1.98437 1.98438 v 1.98437 1.98438 h 1.98437 1.98438 v 1.98437 1.98438 h 1.98437 1.98438 v 1.98437 1.98438 h 1.5875 1.5875 v -5.95313 -5.95312 h -1.5875 -1.5875 v -1.98438 -1.98437 h 1.5875 1.5875 v -5.95313 -5.95312 h -1.5875 -1.5875 v 3.96875 3.96875 h -3.96875 -3.96875 v -1.98438 -1.98437 h -1.98438 -1.98437 v -3.96875 -3.96875 h 1.98437 1.98438 v 1.98437 1.98438 h 1.98437 1.98438 v -1.98438 -1.98437 h -1.98438 -1.98437 v -1.98438 -1.98437 h 3.96875 3.96875 v 1.98437 1.98438 h 1.5875 1.5875 v -1.98438 -1.98437 h -1.5875 -1.5875 v -1.98438 -1.98437 h -1.98438 -1.98437 v -1.98438 -1.98437 h -1.98438 -1.98437 v -1.98438 -1.98437 h -1.98438 -1.98437 v 1.98437 1.98438 h -3.96875 -3.96875 v 1.98437 1.98438 h 1.98437 1.98438 v 5.95312 5.95313 h -3.96875 -3.96875 v -1.98438 -1.98437 h 1.98437 1.98438 v -1.98438 -1.98437 h -1.98438 -1.98437 v -5.95313 -5.95312 h 1.98437 1.98438 v -1.98438 -1.98437 h -1.98438 -1.98437 v 1.98437 1.98438 h -1.98438 -1.98437 v -1.98438 -1.98437 h -1.98438 -1.98437 v 3.96875 3.96875 h 1.98437 1.98438 v 3.96875 3.96875 h 1.98437 1.98438 v 1.98437 1.98438 h -1.98438 -1.98437 v 3.96875 3.96875 h -1.98438 -1.98437 v 1.98437 1.98438 h 1.98437 1.98438 v 3.96875 3.96875 h 1.98437 1.98438 v 1.98437 1.98438 h -5.95313 -5.95312 v -3.96875 -3.96875 h -1.98438 -1.98437 v 1.98437 1.98438 h -1.98438 -1.98437 v -3.96875 -3.96875 h -1.98438 -1.98437 v 1.98437 1.98438 h -1.98438 -1.98437 v -1.98438 -1.98437 h -1.98438 -1.98437 v 1.98437 1.98438 h -3.96875 -3.96875 v -1.98438 -1.98437 h -1.98438 -1.98437 v 3.96875 3.96875 h -1.98438 -1.98437 v -3.96875 -3.96875 h -1.98438 -1.98437 v 1.98437 1.98438 h -1.98438 -1.98437 v -3.96875 -3.96875 h 5.95312 5.95313 v -1.98438 -1.98437 h 1.98437 1.98438 v -1.98438 -1.98437 h 1.98437 1.98438 v 3.96875 3.96875 h 1.98437 1.98438 v -7.9375 -7.9375 h -1.98438 -1.98437 v -1.98438 -1.98437 h 5.95312 5.95313 v 1.98437 1.98438 h 1.98437 1.98438 v 1.98437 1.98438 h -3.96875 -3.96875 v 3.96875 3.96875 h 1.98437 1.98438 v -1.98438 -1.98437 h 1.98437 1.98438 v 3.96875 3.96875 h 3.96875 3.96875 v -7.9375 -7.9375 h -1.98438 -1.98437 v -1.98438 -1.98437 h -3.96875 -3.96875 v -1.98438 -1.98437 h 1.98437 1.98438 v -3.96875 -3.96875 h -1.98438 -1.98437 V 98.954165 93.00104 h -1.98438 -1.98437 v 3.96875 3.96875 h -1.98438 -1.98437 v -7.9375 -7.9375 h -1.98438 -1.98437 v 7.9375 7.9375 h -1.98438 -1.98437 V 98.954165 96.96979 h -1.98438 -1.98437 v 1.984375 1.984375 h -1.98438 -1.98437 v 1.98437 1.98438 h 1.98437 1.98438 v -1.98438 -1.98437 h 1.98437 1.98438 v 3.96875 3.96875 h 3.96875 3.96875 v -1.98438 -1.98437 h 1.98437 1.98438 v 1.98437 1.98438 h 1.98437 1.98438 v 1.98437 1.98438 h -5.95313 -5.95312 v 1.98437 1.98438 h -1.98438 -1.98437 v -1.98438 -1.98437 h -3.96875 -3.96875 v -1.98438 -1.98437 h -3.96875 -3.96875 v -1.98438 -1.98437 h 1.98437 1.98438 v -1.98438 -1.98437 h -1.98438 -1.98437 V 98.954165 96.96979 h -1.98438 -1.98437 v -3.96875 -3.96875 h -1.98438 -1.98437 v 3.96875 3.96875 h -1.98438 -1.98437 v 1.984375 1.984375 h 1.98437 1.98438 V 98.954165 96.96979 h 1.98437 1.98438 v 1.984375 1.984375 h 1.98437 1.98438 v 1.98437 1.98438 h -1.98438 -1.98437 v 1.98437 1.98438 h -1.98438 -1.98437 v 1.98437 1.98438 h 1.98437 1.98438 v 1.98437 1.98438 h -5.95313 -5.95312 v 1.98437 1.98438 h 3.96875 3.96875 v 1.98437 1.98438 h 1.98437 1.98438 v -1.98438 -1.98437 h 3.96875 3.96875 v 1.98437 1.98438 h -1.98438 -1.98437 v 1.98437 1.98438 h 1.98437 1.98438 v -1.98438 -1.98437 h 5.95312 5.95313 v 1.98437 1.98438 h -3.96875 -3.96875 v 1.98437 1.98438 h -7.9375 -7.9375 v -1.98438 -1.98437 h -1.98438 -1.98437 v -1.98438 -1.98437 h -3.96875 -3.96875 v 5.95312 5.95313 h -3.96875 -3.96875 v -1.98438 -1.98437 h -1.98438 -1.98437 v -1.98438 -1.98437 h 3.96875 3.96875 v -3.96875 -3.96875 h 1.98437 1.98438 v -1.98438 -1.98437 h -1.98438 -1.98437 v -1.98438 -1.98437 h -1.98438 -1.98437 v 1.98437 1.98438 h -5.95313 -5.95312 v 1.98437 1.98438 h 5.95312 5.95313 v 1.98437 1.98438 h -5.95313 -5.95312 v 1.98437 1.98438 h 1.98437 1.98438 v 1.98437 1.98438 h -1.98438 -1.98437 v 1.98437 1.98438 h 1.98437 1.98438 v 1.98437 1.98438 h -1.98438 -1.98437 v 1.98437 1.98438 h -3.96875 -3.96875 v 1.98437 1.98438 h 1.98437 1.98438 v 1.98437 1.98438 h 5.95312 5.95313 v 1.98437 1.98438 h 3.96875 3.96875 v -5.95313 -5.95312 h 3.96875 3.96875 v 1.98437 1.98438 h -1.98438 -1.98437 v 5.95312 5.95313 h 1.98437 1.98438 v -1.98438 -1.98437 h 1.98437 1.98438 v -1.98438 -1.98437 h -1.98438 -1.98437 v -1.98438 -1.98437 h 1.98437 1.98438 v -1.98438 -1.98437 h -1.98438 -1.98437 v -1.98438 -1.98437 h 3.96875 3.96875 v 5.95312 5.95313 h 1.98437 1.98438 v -1.98438 -1.98437 h 3.96875 3.96875 v 1.98437 1.98438 h -1.98438 -1.98437 v 1.98437 1.98438 h -1.98438 -1.98437 v 1.98437 1.98438 h 1.98437 1.98438 v 3.96875 3.96875 h 1.98437 1.98438 v 1.98437 1.98438 h 1.98437 1.98438 v -1.98438 -1.98437 h 1.98437 1.98438 v -1.98438 -1.98437 h -1.98438 -1.98437 v 1.98437 1.98438 h -1.98438 -1.98437 v -3.96875 -3.96875 h 5.95312 5.95313 v 1.98437 1.98438 h 1.98437 1.98438 v -5.95313 -5.95312 h -1.98438 -1.98437 v -1.98438 -1.98437 h 3.96875 3.96875 v -1.98438 -1.98437 h 1.98437 1.98438 v 1.98437 1.98438 h 1.98437 1.98438 v 7.9375 7.9375 h 1.98437 1.98438 v 1.98437 1.98438 h -1.98438 -1.98437 v 1.98437 1.98438 h -3.96875 -3.96875 v -1.98438 -1.98437 h 1.98437 1.98438 v -1.98438 -1.98437 h -1.98438 -1.98437 v 1.98437 1.98438 h -1.98438 -1.98437 v 1.98437 1.98438 h -3.96875 -3.96875 v 1.98437 1.98438 h 1.98437 1.98438 v 1.98437 1.98438 h -3.96875 -3.96875 v -1.98438 -1.98437 h -1.98438 -1.98437 v 1.98437 1.98438 h 1.98437 1.98438 v 1.98437 1.98438 h 3.96875 3.96875 v 1.98437 1.98438 h -1.98438 -1.98437 v 1.98437 1.98438 h -1.98438 -1.98437 v 1.98437 1.98438 h 3.96875 3.96875 v -3.96875 -3.96875 h 1.98437 1.98438 v -1.98438 -1.98437 h 1.98437 1.98438 v 1.98437 1.98438 h 3.96875 3.96875 v 3.96875 3.96875 h 1.98437 1.98438 v 1.98437 1.98438 h 3.96875 3.96875 v -1.98438 -1.98437 h 1.98437 1.98438 v -3.96875 -3.96875 h -7.9375 -7.9375 v -3.96875 -3.96875 h 1.98437 1.98438 v 1.98437 1.98438 h 1.98437 1.98438 v -1.98438 -1.98437 h 1.98437 1.98438 v 1.98437 1.98438 h 1.98437 1.98438 v -1.98438 -1.98437 h -1.98438 -1.98437 v -3.96875 -3.96875 h 1.98437 1.98438 v -1.98438 -1.98437 h 1.98437 1.98438 v 5.95312 5.95313 h 1.98437 1.98438 v 1.98437 1.98438 h 3.96875 3.96875 v -3.96875 -3.96875 h 1.98437 1.98438 v 1.98437 1.98438 h 3.96875 3.96875 v 3.96875 3.96875 h -1.98438 -1.98437 v 1.98437 1.98438 h 1.98437 1.98438 v 1.98437 1.98438 h -1.98438 -1.98437 v 1.98437 1.98438 h -1.98438 -1.98437 v 1.98437 1.98438 h -3.96875 -3.96875 v 1.98437 1.98438 h -1.98438 -1.98437 v -1.98438 -1.98437 h -3.96875 -3.96875 v 1.98437 1.98438 h 3.96875 3.96875 v 1.98437 1.98438 z m -19.84375,-15.875 h -1.98437 v -1.98438 -1.98437 h 1.98437 1.98438 v 1.98437 1.98438 z m -19.84375,-11.90625 h -1.98437 v -1.98438 -1.98437 h 1.98437 1.98438 v -1.98438 -1.98437 h 1.98437 1.98438 v 1.98437 1.98438 h 1.98437 1.98438 v 1.98437 1.98438 h -1.98438 -1.98437 v -1.98438 -1.98437 h -1.98438 -1.98437 v 1.98437 1.98438 z m 19.84375,-3.96875 h -1.98437 v -1.98438 -1.98437 h -1.98438 -1.98437 v -1.98438 -1.98437 h 1.98437 1.98438 v -1.98438 -1.98437 h 1.98437 1.98438 v -1.98438 -1.98437 h -1.98438 -1.98437 v -5.95313 -5.95312 h 3.96875 3.96875 v 1.98437 1.98438 h 3.96875 3.96875 v 1.98437 1.98438 h -1.98438 -1.98437 v 3.96875 3.96875 h -1.98438 -1.98437 v 1.98437 1.98438 h -3.96875 -3.96875 v 1.98437 1.98438 h 1.98437 1.98438 v 1.98437 1.98438 z m 3.96875,-19.84375 h 1.98438 v -1.98438 -1.98437 h -1.98438 -1.98437 v 1.98437 1.98438 z m 15.875,19.84375 h -1.98437 v -1.98438 -1.98437 h 1.98437 1.98438 v -1.98438 -1.98437 h -1.98438 -1.98437 v -1.98438 -1.98437 h 1.98437 1.98438 v -1.98438 -1.98437 h -1.98438 -1.98437 v -1.98438 -1.98437 h 1.98437 1.98438 v 1.98437 1.98438 h 1.98437 1.98438 v 5.95312 5.95313 h -1.98438 -1.98437 v 1.98437 1.98438 z m 11.90625,-3.96875 h -1.98437 v -3.96875 -3.96875 h 1.98437 1.98438 v 3.96875 3.96875 z m -67.46875,-15.875 h -1.98437 v -1.98438 -1.98437 h 1.98437 1.98438 v -1.98438 -1.98437 h 1.98437 1.98438 v 1.98437 1.98438 h -1.98438 -1.98437 v 1.98437 1.98438 z m 11.90625,-3.96875 h -1.98437 v -1.98438 -1.98437 h 1.98437 1.98438 v 1.98437 1.98438 z m -43.65625,-3.96875 h -1.98437 v -1.98438 -1.98437 h 1.98437 1.98438 v 1.98437 1.98438 z m -7.9375,-3.96875 h -1.98437 v -1.98438 -1.98437 h 1.98437 1.98438 v -1.98438 -1.98437 h 1.98437 1.98438 v -1.98438 -1.98437 h 1.98437 1.98438 v 1.98437 1.98438 h 1.98437 1.98438 v 1.98437 1.98438 h -5.95313 -5.95312 v 1.98437 1.98438 z m 103.1875,0 h -1.98437 v -1.98438 -1.98437 h -1.98438 -1.98437 v -1.98438 -1.98437 h -3.96875 -3.96875 v -1.98438 -1.98437 h 7.9375 7.9375 v 1.98437 1.98438 h 1.98437 1.98438 v 1.98437 1.98438 h 1.98437 1.98438 v 1.98437 1.98438 h -1.98438 -1.98437 v -1.98438 -1.98437 h -1.98438 -1.98437 v 1.98437 1.98438 z m 0,-3.96875 h 1.98438 v -1.98438 -1.98437 h -1.98438 -1.98437 v 1.98437 1.98438 z m -71.4375,-3.96875 h -1.98437 v -1.98438 -1.98437 h -3.96875 -3.96875 v -3.96875 -3.96875 h 1.98437 1.98438 v 1.98437 1.98438 h 1.98437 1.98438 v 1.98437 1.98438 h 1.98437 1.98438 v 1.98437 1.98438 z m 43.65625,-11.90625 h -1.98437 v -1.98438 -1.98437 h 1.98437 1.98438 v 1.98437 1.98438 z m 31.75,-3.96875 h -1.98437 v -3.96875 -3.96875 h 1.98437 1.98438 v 3.96875 3.96875 z m -95.25,-3.96875 h -1.98437 v -1.98438 -1.98437 h 1.98437 1.98438 v 1.98437 1.98438 z m 33.73438,0 h -3.96875 v -1.98438 -1.98437 h -1.98438 -1.98437 v -1.98438 -1.98437 h -1.98438 -1.98437 v -1.98438 -1.98437 h 1.98437 1.98438 v 1.98437 1.98438 h 3.96875 3.96875 v 1.98437 1.98438 h 1.98437 1.98438 v 1.98437 1.98438 z m -29.76563,87.3125 h 1.98438 v -1.98438 -1.98437 h 1.98437 1.98438 v -1.98438 -1.98437 h 1.98437 1.98438 v -3.96875 -3.96875 h -3.96875 -3.96875 v 1.98437 1.98438 h 1.98437 1.98438 v 1.98437 1.98438 h -1.98438 -1.98437 v 1.98437 1.98438 h -1.98438 -1.98437 v 1.98437 1.98438 z m 79.375,-7.9375 h 5.95313 v -5.95313 -5.95312 h -5.95313 -5.95312 v 5.95312 5.95313 z m 0,-3.96875 h -1.98437 v -1.98438 -1.98437 h 1.98437 1.98438 v 1.98437 1.98438 z m -79.375,-11.90625 h 1.98438 v -3.96875 -3.96875 h -1.98438 -1.98437 v 3.96875 3.96875 z m 11.90625,0 h 1.98438 v -1.98438 -1.98437 h -1.98438 -1.98437 v 1.98437 1.98438 z m 90.88438,-7.9375 h 1.5875 v -1.98438 -1.98437 h -1.5875 -1.5875 v 1.98437 1.98438 z m 0,-7.9375 h 1.5875 v -1.98438 -1.98437 h -1.5875 -1.5875 v 1.98437 1.98438 z m -122.63438,-3.96875 h 1.98438 v -1.98438 -1.98437 h 1.98437 1.98438 v -1.98438 -1.98437 h -3.96875 -3.96875 v 3.96875 3.96875 z m -9.92187,-7.9375 h 3.96875 v -1.98438 -1.98437 h -3.96875 -3.96875 v 1.98437 1.98438 z m 77.39062,0 h 1.98438 v -1.98438 -1.98437 h -1.98438 -1.98437 v 1.98437 1.98438 z m -51.59375,-55.5625 h 1.98438 V 98.954165 96.96979 h -1.98438 -1.98437 v 1.984375 1.984375 z m 95.25,-3.96875 h 9.92188 V 87.047915 77.12604 h -9.92188 -9.92187 v 9.921875 9.921875 z m 0,-3.96875 h -5.95312 V 87.047915 81.09479 h 5.95312 5.95313 v 5.953125 5.953125 z m -83.34375,-3.96875 h 1.98438 v -3.96875 -3.96875 h -1.98438 -1.98437 v 3.96875 3.96875 z m 43.65625,0 h 1.98438 V 87.047915 85.06354 h -1.98438 -1.98437 v 1.984375 1.984375 z m -51.59375,-7.9375 h 1.98438 V 79.110415 77.12604 h -1.98438 -1.98437 v 1.984375 1.984375 z m 29.76563,138.90625 h -3.96875 v -5.95313 -5.95312 h 3.96875 3.96875 v 5.95312 5.95313 z m 11.90625,0 h -3.96875 v -7.9375 -7.9375 h 1.98437 1.98438 v -1.98438 -1.98437 h 1.98437 1.98438 v 1.98437 1.98438 h -1.98438 -1.98437 v 1.98437 1.98438 h 7.9375 7.9375 v 1.98437 1.98438 h -1.98438 -1.98437 v 1.98437 1.98438 h 1.98437 1.98438 v 1.98437 1.98438 h -1.98438 -1.98437 v -1.98438 -1.98437 h -1.98438 -1.98437 v -1.98438 -1.98437 h -1.98438 -1.98437 v 3.96875 3.96875 z m -49.60938,-19.84375 h -1.98437 v -1.98438 -1.98437 h 1.98437 1.98438 v 1.98437 1.98438 z M 371.00854,100.93854 H 357.11792 V 87.047915 73.15729 h 13.89062 13.89063 v 13.890625 13.890625 z m 0,-3.96875 h 9.92188 V 87.047915 77.12604 h -9.92188 -9.92187 v 9.921875 9.921875 z m 0,-3.96875 h -5.95312 V 87.047915 81.09479 h 5.95312 5.95313 v 5.953125 5.953125 z m 99.21875,-3.96875 h -1.98437 V 83.079165 77.12604 h 1.98437 1.98438 v 5.953125 5.953125 z m -43.65625,-3.96875 h -1.98437 V 83.079165 81.09479 h -1.98438 -1.98437 V 79.110415 77.12604 h 1.98437 1.98438 V 75.141665 73.15729 h 1.98437 1.98438 v 1.984375 1.984375 h -1.98438 -1.98437 v 1.984375 1.984375 h 1.98437 1.98438 v 1.984375 1.984375 z"
     id="path506"
     transform="matrix(0.1655065,0,0,0.1655065,-59.105337,-12.10801)"
     inkscape:label="FOND" /><path
     style="display:inline;opacity:1;fill:#09756c;fill-opacity:1;stroke:none;stroke-width:0.98357"
     d="M 0,52.621014 V 0.49178518 H 52.129229 104.25846 V 52.621014 104.75024 H 52.129229 0 Z M 90.488473,52.129229 V 14.26177 H 52.621014 14.753555 v 37.867459 37.867459 h 37.867459 37.867459 z"
     id="path514"
     transform="matrix(0.04379026,0,0,0.04379026,2.6480008e-8,-2.9826151e-6)"
     inkscape:label="GR-HG" /><path
     style="display:inline;opacity:1;fill:#09756c;fill-opacity:1;stroke:none;stroke-width:0.98357"
     d="m 0,502.11267 v -52.12923 h 52.129229 52.129231 v 52.12923 52.12923 H 52.129229 0 Z m 90.488473,0.49178 V 464.737 H 52.621014 14.753555 v 37.86745 37.86746 h 37.867459 37.867459 z"
     id="path516"
     transform="matrix(0.04379026,0,0,0.04379026,2.6480008e-8,-2.9826151e-6)"
     inkscape:label="GR-BD" /><path
     style="display:inline;opacity:1;fill:#09756c;fill-opacity:1;stroke:none;stroke-width:0.260236"
     d="M 476.05118,87.08081 V 73.288285 h 13.79252 13.79253 V 87.08081 100.87333 H 489.8437 476.05118 Z m 23.94174,-0.130118 V 76.931593 h -10.0191 -10.0191 V 86.950692 96.96979 h 10.0191 10.0191 z"
     id="path518"
     inkscape:label="GR-HD"
     transform="matrix(0.1655065,0,0,0.1655065,-59.105337,-12.10801)" /><g
     inkscape:label="qr-code"
     inkscape:groupmode="layer"
     id="layer1"
     transform="translate(-92.848202,-130.96725)" /><metadata
     id="metadata1"><rdf:RDF><cc:Work
         rdf:about=""><dc:creator><cc:Agent><dc:title>Béatrice COUDERC</dc:title></cc:Agent></dc:creator><dc:rights><cc:Agent><dc:title>(c) 2025 CelticWebCraft - Tous droits réservés</dc:title></cc:Agent></dc:rights><dc:publisher><cc:Agent><dc:title>CelticWebCraft</dc:title></cc:Agent></dc:publisher><dc:identifier>https://bcouderc.github.io/celticwebcraft/</dc:identifier><dc:source>Création originale par CelticWebCraft (Inkscape)</dc:source><dc:relation>Lié aux projets GitHub : https://github.com/bcouderc/</dc:relation><dc:language>Francais</dc:language><dc:coverage>2025 - Présent - print</dc:coverage><dc:description>Portfolio et vitrine de CelticWebCraft, développeur web freelance à Guingamp (Côtes-d’Armor), spécialisé dans la création de sites vitrines modernes, responsive et optimisés.</dc:description><dc:date>19/09/25</dc:date><dc:title>cdv-face-avant-arriere</dc:title><dc:subject><rdf:Bag><rdf:li>carte de visite</rdf:li></rdf:Bag></dc:subject></cc:Work></rdf:RDF></metadata></svg>
